<svg width="19" height="18" viewBox="0 0 19 18" fill="none" xmlns="http://www.w3.org/2000/svg">
<path d="M9.5 9C10.7426 9 11.75 7.99264 11.75 6.75C11.75 5.50736 10.7426 4.5 9.5 4.5C8.25736 4.5 7.25 5.50736 7.25 6.75C7.25 7.99264 8.25736 9 9.5 9Z" stroke="#1C441E" stroke-width="1.5"/>
<path d="M9.5 16.5C13.6421 16.5 17 13.1421 17 9C17 4.85786 13.6421 1.5 9.5 1.5C5.35786 1.5 2 4.85786 2 9C2 13.1421 5.35786 16.5 9.5 16.5Z" stroke="#1C441E" stroke-width="1.5"/>
<path d="M13.9768 15C13.8575 12.8314 13.1935 11.25 9.49993 11.25C5.80641 11.25 5.14243 12.8314 5.02307 15" stroke="#1C441E" stroke-width="1.5" stroke-linecap="round"/>
</svg>
