<svg width="17" height="18" viewBox="0 0 17 18" fill="none" xmlns="http://www.w3.org/2000/svg">
<path fill-rule="evenodd" clip-rule="evenodd" d="M16.5625 5.25C16.5625 2.86827 14.6317 0.9375 12.25 0.9375C9.86823 0.9375 7.9375 2.86827 7.9375 5.25C7.9375 5.93885 8.09942 6.5915 8.3878 7.17046C8.39425 7.18342 8.39673 7.19385 8.39755 7.20015C8.39793 7.20311 8.39785 7.20487 8.39785 7.20558L8.17465 8.03962C7.96585 8.82007 8.67985 9.53415 9.46038 9.32535L10.2944 9.10215C10.2933 9.10245 10.2937 9.10223 10.2944 9.10215C10.2951 9.10215 10.2969 9.10207 10.2999 9.10245C10.3062 9.1032 10.3166 9.10575 10.3295 9.1122C10.9085 9.40057 11.5611 9.5625 12.25 9.5625C14.6317 9.5625 16.5625 7.6317 16.5625 5.25ZM12.25 2.0625C14.0104 2.0625 15.4375 3.48959 15.4375 5.25C15.4375 7.01041 14.0104 8.4375 12.25 8.4375C11.7391 8.4375 11.2578 8.31773 10.8311 8.10518C10.5917 7.98593 10.2983 7.93657 10.0044 8.01517L9.295 8.205L9.48475 7.49562C9.56342 7.20168 9.514 6.90833 9.39475 6.66889C9.18227 6.24224 9.0625 5.76091 9.0625 5.25C9.0625 3.48959 10.4896 2.0625 12.25 2.0625Z" fill="#1C441E"/>
<path fill-rule="evenodd" clip-rule="evenodd" d="M12.25 3.1875C12.5607 3.1875 12.8125 3.43934 12.8125 3.75V4.6875H13.75C14.0607 4.6875 14.3125 4.93934 14.3125 5.25C14.3125 5.56066 14.0607 5.8125 13.75 5.8125H12.8125V6.75C12.8125 7.06066 12.5607 7.3125 12.25 7.3125C11.9394 7.3125 11.6875 7.06066 11.6875 6.75V5.8125H10.75C10.4394 5.8125 10.1875 5.56066 10.1875 5.25C10.1875 4.93934 10.4394 4.6875 10.75 4.6875H11.6875V3.75C11.6875 3.43934 11.9394 3.1875 12.25 3.1875Z" fill="#1C441E"/>
<path fill-rule="evenodd" clip-rule="evenodd" d="M1.75559 4.80518C3.01564 3.54512 5.142 3.64091 6.01936 5.213L6.50612 6.0852C7.07905 7.11181 6.8349 8.40713 5.99618 9.25613C5.98501 9.27143 5.92581 9.3576 5.91844 9.5082C5.90902 9.70043 5.97729 10.145 6.66612 10.8339C7.35468 11.5225 7.7992 11.5909 7.99158 11.5816C8.14233 11.5742 8.22858 11.515 8.24388 11.5038C9.09288 10.6651 10.3882 10.421 11.4148 10.9939L12.287 11.4806C13.8591 12.358 13.9548 14.4844 12.6948 15.7444C12.0208 16.4184 11.1246 17.0173 10.0715 17.0572C8.5108 17.1164 5.91935 16.7133 3.35301 14.147C0.786673 11.5806 0.383638 8.9892 0.442798 7.42851C0.482728 6.37536 1.0816 5.47917 1.75559 4.80518ZM5.03699 5.76125C4.58772 4.95624 3.38046 4.7713 2.55108 5.60067C1.96957 6.18218 1.59153 6.82404 1.567 7.47113C1.51765 8.7726 1.83898 11.042 4.14851 13.3515C6.45803 15.661 8.72733 15.9824 10.0289 15.933C10.676 15.9085 11.3178 15.5304 11.8993 14.9489C12.7287 14.1195 12.5437 12.9122 11.7387 12.463L10.8666 11.9762C10.324 11.6735 9.56185 11.7767 9.02688 12.3117C8.97438 12.3642 8.6398 12.6764 8.04625 12.7052C7.43853 12.7348 6.703 12.4618 5.87062 11.6294C5.03796 10.7967 4.76503 10.061 4.79478 9.45323C4.82385 8.8596 5.13601 8.5254 5.18824 8.47313C5.72323 7.93815 5.82655 7.17601 5.52375 6.63345L5.03699 5.76125Z" fill="#1C441E"/>
</svg>
