<svg width="20" height="22" viewBox="0 0 20 22" fill="none" xmlns="http://www.w3.org/2000/svg">
<path d="M9.24992 0.570312C7.9468 0.860937 6.90149 1.76562 6.47961 2.96562C5.98274 4.39531 6.32961 5.89062 7.41242 6.93125L7.74055 7.25H10.0046H12.2687L12.6484 6.86094C13.2343 6.27031 13.5718 5.60937 13.6984 4.8125C13.914 3.5 13.3421 2.07031 12.2921 1.27344C11.9499 1.01562 11.3734 0.729687 10.9609 0.617187C10.5671 0.509375 9.63899 0.48125 9.24992 0.570312ZM10.2577 2.11719C10.3234 2.17812 10.3749 2.28125 10.3749 2.34219C10.3749 2.42656 10.4124 2.47344 10.5155 2.51562C10.8296 2.64687 11.1249 3.12031 11.1249 3.49531C11.1249 3.69219 10.9468 3.875 10.7499 3.875C10.5577 3.875 10.3749 3.69219 10.3749 3.5C10.3749 3.30781 10.1921 3.125 9.99992 3.125C9.80774 3.125 9.62492 3.30781 9.62492 3.5C9.62492 3.69687 9.80774 3.875 10.0046 3.875C10.5812 3.875 11.1249 4.42344 11.1249 5C11.1249 5.37969 10.8343 5.85312 10.5155 5.98438C10.4124 6.02656 10.3749 6.07344 10.3749 6.15781C10.3749 6.31719 10.178 6.5 9.99992 6.5C9.8218 6.5 9.62492 6.31719 9.62492 6.15781C9.62492 6.07344 9.58742 6.02656 9.4843 5.98438C9.17024 5.85312 8.87492 5.37969 8.87492 5.00469C8.87492 4.80781 9.05305 4.625 9.24992 4.625C9.44211 4.625 9.62492 4.80781 9.62492 5C9.62492 5.19219 9.80774 5.375 9.99992 5.375C10.1921 5.375 10.3749 5.19219 10.3749 5C10.3749 4.80312 10.1921 4.625 9.99524 4.625C9.41867 4.625 8.87492 4.07656 8.87492 3.5C8.87492 3.12031 9.16555 2.64687 9.4843 2.51562C9.58742 2.47344 9.62492 2.42656 9.62492 2.34219C9.62492 2.18281 9.8218 2 9.99992 2C10.089 2 10.1874 2.04219 10.2577 2.11719Z" fill="white"/>
<path d="M2.67344 5.05156C2.62656 5.07969 2.09688 6.09219 1.49219 7.30156L0.390625 9.5H10H19.6094L18.5078 7.29688C17.8422 5.96562 17.3734 5.07969 17.3172 5.04688C17.2609 5.01875 16.7125 5 15.8266 5H14.4297L14.3453 5.36562C14.2469 5.80625 13.8813 6.56562 13.5859 6.94531L13.3703 7.22656L14.2188 7.25C15.0438 7.27344 15.0719 7.27812 15.1609 7.38594C15.2828 7.53594 15.2734 7.74687 15.1328 7.88281L15.0203 8H10H4.97969L4.86719 7.88281C4.72656 7.74687 4.71719 7.53594 4.83906 7.38594C4.92813 7.27812 4.95625 7.27344 5.78125 7.25L6.62969 7.22656L6.41406 6.94531C6.11875 6.56562 5.75313 5.80625 5.65469 5.36562L5.57031 5H4.16406C3.28281 5 2.725 5.01875 2.67344 5.05156Z" fill="white"/>
<path d="M0.25 15.7578V21.2703L0.367188 21.3828L0.479688 21.5H10H19.5203L19.6328 21.3828L19.75 21.2703V15.7578V10.25H10H0.25V15.7578ZM8.87969 12.4484C9.20781 12.5609 9.47969 12.7297 9.775 13.0062L10 13.2172L10.225 13.0062C10.6516 12.6078 11.1203 12.3875 11.65 12.3312C12.4469 12.2516 13.3094 12.6875 13.7594 13.3906C14.2047 14.0844 14.1813 15.0875 13.7078 15.8094C13.6 15.9734 12.8406 16.7656 11.8422 17.7594C10.2859 19.3109 10.15 19.4375 10 19.4375C9.85 19.4375 9.71406 19.3109 8.15781 17.7594C7.15938 16.7656 6.4 15.9734 6.29219 15.8094C5.81875 15.0875 5.79531 14.0891 6.24531 13.3859C6.54531 12.9125 7.16875 12.4719 7.70313 12.3594C8.00313 12.2984 8.57031 12.3406 8.87969 12.4484Z" fill="white"/>
<path d="M7.58601 13.175C6.85008 13.4844 6.48445 14.3 6.74226 15.0781C6.81726 15.3172 6.92976 15.4437 8.41101 16.9297L10.0001 18.5234L11.5891 16.9297C13.0704 15.4437 13.1829 15.3172 13.2579 15.0781C13.4501 14.4969 13.3282 13.9484 12.911 13.5266C12.5688 13.1797 12.2266 13.0437 11.7813 13.0766C11.3266 13.1047 11.0876 13.2359 10.586 13.7188C10.0048 14.2812 9.99539 14.2812 9.41414 13.7188C8.9032 13.2219 8.66883 13.1 8.19539 13.0766C7.92351 13.0625 7.8157 13.0812 7.58601 13.175Z" fill="white"/>
</svg>
