<svg width="20" height="20" viewBox="0 0 20 20" fill="none" xmlns="http://www.w3.org/2000/svg">
<path d="M16 11.25V8.75H20V11.25H16ZM17.2 20L14 17L15.2 15L18.4 18L17.2 20ZM15.2 5L14 3L17.2 0L18.4 2L15.2 5ZM3 18.75V13.75H2C1.45 13.75 0.979333 13.5054 0.588 13.0163C0.196667 12.5271 0.000666667 11.9383 0 11.25V8.75C0 8.0625 0.196 7.47417 0.588 6.985C0.98 6.49583 1.45067 6.25083 2 6.25H6L11 2.5V17.5L6 13.75H5V18.75H3ZM9 13.0625V6.9375L6.55 8.75H2V11.25H6.55L9 13.0625ZM12 14.1875V5.8125C12.45 6.3125 12.8127 6.92208 13.088 7.64125C13.3633 8.36042 13.5007 9.14667 13.5 10C13.4993 10.8533 13.3617 11.64 13.087 12.36C12.8123 13.08 12.45 13.6892 12 14.1875Z" fill="#3E7E41"/>
</svg>
