<svg width="24" height="24" viewBox="0 0 24 24" fill="none" xmlns="http://www.w3.org/2000/svg">
<path d="M9.51948 2.03249C8.19483 2.31384 7.28047 3.54862 7.36253 4.94361C7.38988 5.42815 7.46413 5.70558 7.68295 6.15495C8.06979 6.95209 8.66373 7.5773 10.637 9.26927C11.9421 10.3868 11.9851 10.422 12.0633 10.3595C12.1102 10.3243 12.6728 9.85149 13.3137 9.30443C15.0721 7.80394 15.92 6.92474 16.2678 6.2331C16.6468 5.48676 16.7328 4.68572 16.51 3.94719C16.3068 3.25555 15.7402 2.57173 15.1268 2.27085C14.6969 2.05984 14.3101 1.97779 13.8764 2.00514C13.2394 2.04812 12.7354 2.28257 12.2586 2.7632L11.9812 3.04064L11.7663 2.80228C11.5045 2.50921 11.0864 2.23178 10.7269 2.11455C10.4299 2.01686 9.79301 1.96997 9.51948 2.03249Z" fill="#1C441E"/>
<path d="M2.87583 5.60003C2.61012 5.68991 2.48117 5.77196 2.29361 5.98297C1.98101 6.33074 1.99273 6.15881 2.00446 9.8319L2.01618 13.0713L2.12168 13.3878C2.1803 13.5597 2.29752 13.8059 2.37958 13.9348C2.46945 14.0716 3.46978 15.1266 4.82178 16.5099C6.84587 18.5809 7.1233 18.8779 7.20145 19.0693C7.28742 19.2764 7.29133 19.339 7.30305 20.6402L7.31477 22H9.36622H11.4138V17.8072V13.6183L9.41311 11.6177C8.0572 10.2695 7.34994 9.58964 7.23271 9.53102C6.98263 9.39817 6.46684 9.39817 6.22848 9.52711C5.6658 9.82409 5.41963 10.4337 5.63063 11.0003C5.71269 11.2191 5.81428 11.3285 7.30696 12.829L8.8895 14.4194L8.48312 14.8297L8.07283 15.2399L6.40432 13.5714C4.70846 11.8755 4.59514 11.7466 4.44665 11.3207C4.41539 11.2347 4.39586 10.4258 4.38023 8.81203C4.36069 6.49486 4.35678 6.42452 4.27863 6.24868C4.09107 5.8423 3.72376 5.59222 3.27831 5.56486C3.13764 5.55705 2.96571 5.57268 2.87583 5.60003Z" fill="#1C441E"/>
<path d="M20.4205 5.61566C20.1665 5.70944 19.9907 5.83449 19.85 6.02986C19.6234 6.34637 19.6195 6.36982 19.6195 8.77687C19.6195 10.2383 19.6038 11.0472 19.5765 11.1839C19.471 11.6802 19.3928 11.774 17.5954 13.5714L15.9269 15.2399L15.5166 14.8297L15.1102 14.4194L16.6927 12.829C18.1854 11.3285 18.287 11.2191 18.3691 11.0003C18.5723 10.4493 18.33 9.81627 17.8064 9.54275C17.6344 9.45287 17.5602 9.43724 17.275 9.43724C17.0014 9.43724 16.9116 9.45287 16.767 9.53102C16.6498 9.58964 15.9386 10.2735 14.5905 11.6177L12.5859 13.6183V17.8072V22H14.6335H16.6849L16.6966 20.6402C16.7084 19.339 16.7123 19.2764 16.7982 19.0693C16.8764 18.8779 17.1538 18.577 19.1935 16.4904C21.6475 13.9739 21.7022 13.9114 21.8936 13.3448L21.9835 13.0713L21.9952 9.8319C22.007 6.13537 22.0226 6.33074 21.6904 5.96734C21.3583 5.60394 20.8464 5.46327 20.4205 5.61566Z" fill="#1C441E"/>
</svg>
