<svg width="24" height="24" viewBox="0 0 24 24" fill="none" xmlns="http://www.w3.org/2000/svg">
<path d="M17.99 8C17.99 9.11207 17.1034 10 16 10C14.8923 10 14 9.10772 14 8C14 6.89228 14.8923 6 16 6C17.1034 6 17.99 6.88792 17.99 8ZM9.99 8C9.99 9.11207 9.10336 10 8 10C6.89228 10 6 9.10772 6 8C6 6.89228 6.89228 6 8 6C9.10336 6 9.99 6.88792 9.99 8ZM2 16.5C2 16.285 2.09978 16.0228 2.44404 15.7053C2.79514 15.3815 3.32938 15.0721 3.99778 14.8047C5.33618 14.2691 6.9599 14 8 14C9.0401 14 10.6638 14.2691 12.0022 14.8047C12.6706 15.0721 13.2049 15.3815 13.556 15.7053C13.9002 16.0228 14 16.285 14 16.5V18H2V16.5ZM18 16.5C18 15.5914 17.7584 14.7978 17.3618 14.1121C18.2113 14.2377 19.1628 14.4688 20.0022 14.8047C20.6706 15.0721 21.2049 15.3815 21.556 15.7053C21.9002 16.0228 22 16.285 22 16.5V18H18V16.5Z" stroke="#3E7E41" stroke-width="2"/>
</svg>
