<svg width="20" height="20" viewBox="0 0 20 20" fill="none" xmlns="http://www.w3.org/2000/svg">
<g clip-path="url(#clip0_620_6306)">
<path d="M11.5625 1.46884C10.6523 1.66415 9.86324 2.44931 9.60543 3.42587C9.49996 3.8204 9.48824 4.5079 9.5859 4.90243C9.66793 5.254 9.98043 5.8829 10.2382 6.23056C10.5898 6.6954 11.5273 7.59775 12.8046 8.68759C13.4765 9.26181 14.0507 9.73837 14.082 9.75009C14.1132 9.76181 14.3632 9.57431 14.6953 9.28915C15.0078 9.02353 15.6523 8.47275 16.1367 8.06259C17.0546 7.27743 17.7304 6.61337 18.0781 6.15243C18.3242 5.82431 18.6015 5.26962 18.6992 4.92197C18.7929 4.57431 18.7929 3.78915 18.6953 3.43759C18.5507 2.89462 18.2461 2.39462 17.832 2.02353C17.3007 1.55087 16.4804 1.3204 15.7461 1.4454C15.2148 1.53525 14.5703 1.93759 14.2265 2.39462L14.1484 2.504L13.7812 2.13681C13.3828 1.73837 13.1054 1.57431 12.6523 1.46493C12.3476 1.39462 11.9023 1.39462 11.5625 1.46884Z" fill="#1C441E"/>
<path d="M6.44531 9.668C5.82422 9.793 5.33594 10.0547 4.58594 10.6563C3.6875 11.3789 3.05859 11.9414 2.05078 12.9141C1.16797 13.7696 0.792969 14.1172 0.144531 14.6758L0 14.8008L1.43359 16.6875C2.21875 17.7266 2.86719 18.5782 2.875 18.586C2.87891 18.5938 3.08203 18.4649 3.32422 18.3008C4.61328 17.4414 5.80469 17.0586 7.20703 17.0586C7.89844 17.0586 7.85938 17.0508 9.90234 17.4024C11.7969 17.7266 11.8555 17.7344 12.5703 17.7344C13.5586 17.7344 14.25 17.586 15.0273 17.2032C15.8555 16.7969 16.7773 16.1133 17.6016 15.2891C18.5352 14.3555 18.9648 13.6602 19.6328 12.0313C20.0156 11.086 20.0625 10.8672 19.9336 10.5977C19.832 10.3789 19.6758 10.3047 19.375 10.3242C18.7266 10.3672 18.3047 10.75 17.2891 12.2071C17.0781 12.5078 16.7969 12.8672 16.668 13.0039C16.0078 13.6836 15.1406 14.125 14.2031 14.2539C14.0156 14.2813 13.0391 14.2969 11.6562 14.2969H9.41406V13.7149V13.1367L11.0078 13.1133C12.957 13.086 13.6914 13.0117 14.6016 12.75C15.4805 12.4961 15.875 12.0547 15.5586 11.6758C15.4102 11.5039 14.9922 11.3125 14.5 11.1953C14.2695 11.1407 13.5273 11.0157 12.8516 10.918C10.4297 10.5664 9.51172 10.3555 8.31641 9.88284C7.65625 9.61722 7.03906 9.5469 6.44531 9.668Z" fill="#1C441E"/>
</g>
<defs>
<clipPath id="clip0_620_6306">
<rect width="20" height="20" fill="white"/>
</clipPath>
</defs>
</svg>
