<svg width="20" height="20" viewBox="0 0 20 20" fill="none" xmlns="http://www.w3.org/2000/svg">
<path d="M2.404 12.522L5.806 9.12L8.635 11.949L11.792 8.792L9.999 6.999H14.999V11.999L13.206 10.206L8.635 14.777L5.806 11.949L3.332 14.423C4.45541 16.1139 6.17962 17.3144 8.15523 17.7813C10.1308 18.2483 12.2101 17.9467 13.9716 16.9377C15.7331 15.9287 17.0452 14.2878 17.6419 12.3474C18.2387 10.4071 18.0754 8.31241 17.1852 6.48793C16.2951 4.66346 14.7446 3.24563 12.848 2.52174C10.9515 1.79786 8.85059 1.82207 6.97119 2.58947C5.09178 3.35687 3.5744 4.81006 2.72653 6.65456C1.87866 8.49906 1.76372 10.5969 2.405 12.523M0.868001 14.081L0.858001 14.071L0.862001 14.067C0.29293 12.7867 -0.000748467 11.4011 1.43252e-06 10C1.43252e-06 4.477 4.477 0 10 0C15.523 0 20 4.477 20 10C20 15.523 15.523 20 10 20C5.93 20 2.43 17.57 0.868001 14.081Z" fill="#3E7E41"/>
</svg>
