<svg width="20" height="12" viewBox="0 0 20 12" fill="none" xmlns="http://www.w3.org/2000/svg">
<path d="M19.9238 0.617101C19.8224 0.372751 19.6282 0.178576 19.3838 0.0771008C19.2636 0.0258598 19.1345 -0.00131918 19.0038 -0.00289917H14.0038C13.7386 -0.00289917 13.4843 0.102458 13.2967 0.289994C13.1092 0.477531 13.0038 0.731884 13.0038 0.997101C13.0038 1.26232 13.1092 1.51667 13.2967 1.70421C13.4843 1.89174 13.7386 1.9971 14.0038 1.9971H16.5938L11.0038 7.5871L7.71385 4.2871C7.62088 4.19337 7.51028 4.11898 7.38842 4.06821C7.26656 4.01744 7.13586 3.9913 7.00385 3.9913C6.87183 3.9913 6.74113 4.01744 6.61927 4.06821C6.49741 4.11898 6.38681 4.19337 6.29385 4.2871L0.293845 10.2871C0.200117 10.3801 0.125722 10.4907 0.0749538 10.6125C0.0241851 10.7344 -0.00195312 10.8651 -0.00195312 10.9971C-0.00195312 11.1291 0.0241851 11.2598 0.0749538 11.3817C0.125722 11.5035 0.200117 11.6141 0.293845 11.7071C0.386808 11.8008 0.497409 11.8752 0.619269 11.926C0.741128 11.9768 0.871833 12.0029 1.00385 12.0029C1.13586 12.0029 1.26656 11.9768 1.38842 11.926C1.51028 11.8752 1.62088 11.8008 1.71385 11.7071L7.00385 6.4071L10.2938 9.7071C10.3868 9.80083 10.4974 9.87522 10.6193 9.92599C10.7411 9.97676 10.8718 10.0029 11.0038 10.0029C11.1359 10.0029 11.2666 9.97676 11.3884 9.92599C11.5103 9.87522 11.6209 9.80083 11.7138 9.7071L18.0038 3.4071V5.9971C18.0038 6.26232 18.1092 6.51667 18.2967 6.70421C18.4843 6.89174 18.7386 6.9971 19.0038 6.9971C19.2691 6.9971 19.5234 6.89174 19.711 6.70421C19.8985 6.51667 20.0038 6.26232 20.0038 5.9971V0.997101C20.0023 0.866424 19.9751 0.737323 19.9238 0.617101Z" fill="#1C441E"/>
</svg>
