<svg width="18" height="19" viewBox="0 0 18 19" fill="none" xmlns="http://www.w3.org/2000/svg">
<path d="M2.625 0.0761719C1.92881 0.0761719 1.26113 0.352734 0.768845 0.845017C0.276562 1.3373 0 2.00498 0 2.70117V15.4512C0 16.9002 1.176 18.0762 2.625 18.0762H15.375C16.0712 18.0762 16.7389 17.7996 17.2312 17.3073C17.7234 16.815 18 16.1474 18 15.4512V2.70117C18 2.00498 17.7234 1.3373 17.2312 0.845017C16.7389 0.352734 16.0712 0.0761719 15.375 0.0761719H2.625ZM1.5 2.70117C1.5 2.4028 1.61853 2.11666 1.8295 1.90568C2.04048 1.6947 2.32663 1.57617 2.625 1.57617H15.375C15.6734 1.57617 15.9595 1.6947 16.1705 1.90568C16.3815 2.11666 16.5 2.4028 16.5 2.70117V15.4512C16.5 15.7495 16.3815 16.0357 16.1705 16.2467C15.9595 16.4576 15.6734 16.5762 15.375 16.5762H2.625C2.32663 16.5762 2.04048 16.4576 1.8295 16.2467C1.61853 16.0357 1.5 15.7495 1.5 15.4512V2.70117ZM6 6.82617C6 6.62726 5.92098 6.43649 5.78033 6.29584C5.63968 6.15519 5.44891 6.07617 5.25 6.07617C5.05109 6.07617 4.86032 6.15519 4.71967 6.29584C4.57902 6.43649 4.5 6.62726 4.5 6.82617V12.8262C4.5 13.0251 4.57902 13.2158 4.71967 13.3565C4.86032 13.4972 5.05109 13.5762 5.25 13.5762C5.44891 13.5762 5.63968 13.4972 5.78033 13.3565C5.92098 13.2158 6 13.0251 6 12.8262V6.82617ZM9 9.07617C9.19891 9.07617 9.38968 9.15519 9.53033 9.29584C9.67098 9.43649 9.75 9.62726 9.75 9.82617V12.8262C9.75 13.0251 9.67098 13.2158 9.53033 13.3565C9.38968 13.4972 9.19891 13.5762 9 13.5762C8.80109 13.5762 8.61032 13.4972 8.46967 13.3565C8.32902 13.2158 8.25 13.0251 8.25 12.8262V9.82617C8.25 9.62726 8.32902 9.43649 8.46967 9.29584C8.61032 9.15519 8.80109 9.07617 9 9.07617ZM13.5 5.32617C13.5 5.12726 13.421 4.93649 13.2803 4.79584C13.1397 4.65519 12.9489 4.57617 12.75 4.57617C12.5511 4.57617 12.3603 4.65519 12.2197 4.79584C12.079 4.93649 12 5.12726 12 5.32617V12.8262C12 13.0251 12.079 13.2158 12.2197 13.3565C12.3603 13.4972 12.5511 13.5762 12.75 13.5762C12.9489 13.5762 13.1397 13.4972 13.2803 13.3565C13.421 13.2158 13.5 13.0251 13.5 12.8262V5.32617Z" fill="#1C441E"/>
</svg>
