<svg width="20" height="21" viewBox="0 0 20 21" fill="none" xmlns="http://www.w3.org/2000/svg">
<path fill-rule="evenodd" clip-rule="evenodd" d="M11.8253 1.7502H7.17527C7.02829 2.47087 6.67263 3.13241 6.15255 3.65249C5.63247 4.17257 4.97094 4.52822 4.25027 4.6752V5.3252C4.97094 5.47218 5.63247 5.82783 6.15255 6.34791C6.67263 6.86799 7.02829 7.52953 7.17527 8.2502H11.8253C11.9722 7.52953 12.3279 6.86799 12.848 6.34791C13.3681 5.82783 14.0296 5.47218 14.7503 5.3252V4.6752C14.0296 4.52822 13.3681 4.17257 12.848 3.65249C12.3279 3.13241 11.9722 2.47087 11.8253 1.7502ZM12.4303 0.2532C12.1556 0.250533 11.8629 0.249533 11.5523 0.2502H7.44827C7.1376 0.2502 6.84527 0.2512 6.57127 0.2532C6.51661 0.249707 6.46176 0.250711 6.40727 0.2562C5.95527 0.2642 5.55427 0.2832 5.20627 0.3302C4.57827 0.4142 4.01127 0.6002 3.55627 1.0552C3.10027 1.5112 2.91427 2.0782 2.83027 2.7052C2.78327 3.0542 2.76427 3.4552 2.75627 3.9072C2.75083 3.96136 2.74983 4.01588 2.75327 4.0702C2.7506 4.34553 2.7496 4.6382 2.75027 4.9482V5.0522C2.75027 5.3622 2.75127 5.65487 2.75327 5.9302C2.74983 5.98452 2.75083 6.03904 2.75627 6.0932C2.76427 6.5462 2.78327 6.9462 2.83027 7.2942C2.91427 7.9222 3.10027 8.4892 3.55627 8.9442C4.01127 9.4002 4.57827 9.5862 5.20627 9.6702C5.55427 9.7172 5.95527 9.7362 6.40727 9.7442C6.46176 9.74969 6.51661 9.75069 6.57127 9.7472C6.84527 9.74987 7.1376 9.75087 7.44827 9.7502H11.5523C11.8623 9.7502 12.1549 9.7492 12.4303 9.7472C12.4846 9.75064 12.5391 9.74964 12.5933 9.7442C13.0463 9.7362 13.4473 9.7172 13.7943 9.6702C14.4223 9.5862 14.9893 9.4002 15.4443 8.9442C15.9003 8.4892 16.0863 7.9222 16.1703 7.2942C16.2168 6.89552 16.2415 6.49458 16.2443 6.0932C16.2497 6.03904 16.2507 5.98452 16.2473 5.9302C16.2499 5.65487 16.2509 5.3622 16.2503 5.0522V4.9482C16.2503 4.6382 16.2493 4.34553 16.2473 4.0702C16.2507 4.01588 16.2497 3.96136 16.2443 3.9072C16.2415 3.50582 16.2168 3.10488 16.1703 2.7062C16.0863 2.0782 15.9003 1.5112 15.4453 1.0562C14.9893 0.6002 14.4223 0.4142 13.7953 0.3302C13.3963 0.283603 12.995 0.258899 12.5933 0.2562C12.5391 0.250765 12.4846 0.249762 12.4303 0.2532ZM13.3943 1.7942C13.5077 2.09328 13.6832 2.36488 13.9094 2.59105C14.1356 2.81722 14.4072 2.99281 14.7063 3.1062C14.6999 3.03939 14.6923 2.97271 14.6833 2.9062C14.6223 2.4442 14.5143 2.2462 14.3833 2.1162C14.2523 1.9862 14.0563 1.8792 13.5953 1.8162C13.5288 1.80753 13.4621 1.80019 13.3953 1.7942M14.7073 6.8942C14.4082 7.00759 14.1366 7.18318 13.9104 7.40935C13.6842 7.63552 13.5087 7.90712 13.3953 8.2062C13.4653 8.19953 13.5319 8.1922 13.5953 8.1842C14.0573 8.1212 14.2553 8.0142 14.3853 7.8842C14.5153 7.7542 14.6233 7.5562 14.6853 7.0942C14.6933 7.03087 14.7006 6.9642 14.7073 6.8942ZM5.60727 8.2062C5.49387 7.90712 5.31829 7.63552 5.09212 7.40935C4.86595 7.18318 4.59434 7.00759 4.29527 6.8942C4.30193 6.9642 4.3096 7.03087 4.31827 7.0942C4.38027 7.5562 4.48727 7.7542 4.61827 7.8842C4.74927 8.0142 4.94527 8.1212 5.40627 8.1842C5.47027 8.1922 5.53727 8.19953 5.60727 8.2062ZM4.29527 3.1062C4.59434 2.99281 4.86595 2.81722 5.09212 2.59105C5.31829 2.36488 5.49387 2.09328 5.60727 1.7942C5.53727 1.80087 5.4706 1.80853 5.40727 1.8172C4.94527 1.8792 4.74727 1.9862 4.61727 2.1172C4.48727 2.2482 4.38027 2.4442 4.31727 2.9052L4.29527 3.1062ZM9.50027 4.7502C9.43396 4.7502 9.37037 4.77654 9.32349 4.82342C9.27661 4.87031 9.25027 4.9339 9.25027 5.0002C9.25027 5.0665 9.27661 5.13009 9.32349 5.17698C9.37037 5.22386 9.43396 5.2502 9.50027 5.2502C9.56657 5.2502 9.63016 5.22386 9.67704 5.17698C9.72393 5.13009 9.75027 5.0665 9.75027 5.0002C9.75027 4.9339 9.72393 4.87031 9.67704 4.82342C9.63016 4.77654 9.56657 4.7502 9.50027 4.7502ZM7.75027 5.0002C7.75027 4.53607 7.93464 4.09095 8.26283 3.76276C8.59102 3.43457 9.03614 3.2502 9.50027 3.2502C9.9644 3.2502 10.4095 3.43457 10.7377 3.76276C11.0659 4.09095 11.2503 4.53607 11.2503 5.0002C11.2503 5.46433 11.0659 5.90945 10.7377 6.23764C10.4095 6.56583 9.9644 6.7502 9.50027 6.7502C9.03614 6.7502 8.59102 6.56583 8.26283 6.23764C7.93464 5.90945 7.75027 5.46433 7.75027 5.0002ZM6.18427 12.4482C8.05027 12.0872 10.0473 12.1682 11.6643 13.1322C11.8903 13.2672 12.1043 13.4362 12.2893 13.6442C12.6653 14.0672 12.8593 14.5912 12.8683 15.1172C13.0589 14.9932 13.2513 14.8575 13.4453 14.7102L15.2533 13.3452C15.7062 13.0128 16.2534 12.8335 16.8153 12.8335C17.3771 12.8335 17.9243 13.0128 18.3773 13.3452C19.2123 13.9752 19.5463 15.1082 18.9473 16.0682C18.5223 16.7492 17.8823 17.6922 17.2303 18.2962C16.5703 18.9062 15.6333 19.4202 14.9243 19.7622C14.0623 20.1782 13.1323 20.4082 12.2273 20.5542C10.3773 20.8542 8.45327 20.8082 6.62527 20.4312C5.68256 20.2374 4.72269 20.1392 3.76027 20.1382H1.50027C1.30135 20.1382 1.11059 20.0592 0.969937 19.9185C0.829284 19.7779 0.750267 19.5871 0.750267 19.3882C0.750267 19.1893 0.829284 18.9985 0.969937 18.8579C1.11059 18.7172 1.30135 18.6382 1.50027 18.6382H3.76027C4.82227 18.6382 5.89527 18.7492 6.92827 18.9622C8.59443 19.3041 10.3087 19.3417 11.9883 19.0732C12.8163 18.9392 13.5903 18.7402 14.2723 18.4112C14.9553 18.0812 15.7233 17.6472 16.2103 17.1962C16.7033 16.7392 17.2543 15.9482 17.6753 15.2742C17.8023 15.0702 17.7843 14.7772 17.4733 14.5422C17.1033 14.2622 16.5263 14.2622 16.1573 14.5422L14.3503 15.9072C13.6283 16.4522 12.7403 17.0352 11.6393 17.2112C11.5239 17.2295 11.4082 17.2455 11.2923 17.2592C11.2349 17.2692 11.1753 17.2759 11.1133 17.2792C10.4708 17.3416 9.82376 17.3416 9.18127 17.2792C9.08166 17.272 8.9845 17.2449 8.89548 17.1997C8.80647 17.1544 8.72739 17.0918 8.66289 17.0156C8.59839 16.9393 8.54976 16.8509 8.51987 16.7557C8.48998 16.6604 8.47942 16.5601 8.48881 16.4606C8.4982 16.3612 8.52735 16.2647 8.57455 16.1767C8.62176 16.0887 8.68606 16.011 8.7637 15.9481C8.84133 15.8853 8.93073 15.8386 9.02665 15.8108C9.12256 15.783 9.22307 15.7746 9.32227 15.7862C9.87702 15.8399 10.4357 15.8389 10.9903 15.7832L11.0203 15.7802C11.1136 15.7223 11.1929 15.6444 11.2524 15.5522C11.312 15.4599 11.3503 15.3556 11.3646 15.2467C11.379 15.1378 11.369 15.0271 11.3354 14.9226C11.3018 14.8181 11.2454 14.7223 11.1703 14.6422C11.0901 14.555 10.9974 14.4802 10.8953 14.4202C9.71427 13.7152 8.13627 13.5982 6.46927 13.9202C4.84082 14.2471 3.2971 14.9058 1.93427 15.8552C1.8539 15.9122 1.76309 15.9528 1.66703 15.9747C1.57097 15.9966 1.47153 15.9994 1.3744 15.9828C1.27727 15.9663 1.18435 15.9308 1.10094 15.8784C1.01753 15.8259 0.94526 15.7576 0.888267 15.6772C0.831273 15.5968 0.790667 15.506 0.768768 15.41C0.746868 15.3139 0.744104 15.2145 0.760633 15.1173C0.794014 14.9212 0.903954 14.7463 1.06627 14.6312C2.60359 13.5586 4.34605 12.8154 6.18427 12.4482Z" fill="#3E7E41"/>
</svg>
