<svg width="120" height="120" viewBox="0 0 120 120" fill="none" xmlns="http://www.w3.org/2000/svg">
<path d="M110 40.8101V41.1751C110 45.4751 110 47.6301 108.965 49.3901C107.93 51.1501 106.045 52.1951 102.285 54.2901L98.32 56.4901C101.05 47.2501 101.965 37.3201 102.3 28.8301L102.35 27.7251L102.36 27.4651C105.615 28.5951 107.445 29.4401 108.585 31.0201C110 32.9851 110 35.5951 110 40.8101ZM10 40.8101V41.1751C10 45.4751 10 47.6301 11.035 49.3901C12.07 51.1501 13.955 52.1951 17.715 54.2901L21.685 56.4901C18.95 47.2501 18.035 37.3201 17.7 28.8301L17.65 27.7251L17.645 27.4651C14.385 28.5951 12.555 29.4401 11.415 31.0201C10 32.9851 10 35.6001 10 40.8101Z" fill="#BB9B49"/>
<path fill-rule="evenodd" clip-rule="evenodd" d="M60 9.99991C68.92 9.99991 76.265 10.7849 81.885 11.7349C87.58 12.6949 90.425 13.1749 92.805 16.1049C95.185 19.0349 95.055 22.1999 94.805 28.5299C93.945 50.2749 89.255 77.4299 63.75 79.8299V97.4999H70.9C72.0554 97.5006 73.175 97.9015 74.0683 98.6343C74.9616 99.3672 75.5735 100.387 75.8 101.52L76.75 106.25H90C90.9945 106.25 91.9484 106.645 92.6516 107.348C93.3549 108.052 93.75 109.005 93.75 110C93.75 110.994 93.3549 111.948 92.6516 112.652C91.9484 113.355 90.9945 113.75 90 113.75H30C29.0054 113.75 28.0516 113.355 27.3483 112.652C26.6451 111.948 26.25 110.994 26.25 110C26.25 109.005 26.6451 108.052 27.3483 107.348C28.0516 106.645 29.0054 106.25 30 106.25H43.25L44.2 101.52C44.4265 100.387 45.0384 99.3672 45.9317 98.6343C46.825 97.9015 47.9445 97.5006 49.1 97.4999H56.25V79.8299C30.75 77.4299 26.06 50.2699 25.2 28.5299C24.945 22.1999 24.82 19.0299 27.2 16.1049C29.575 13.1749 32.42 12.6949 38.115 11.7349C45.3492 10.5499 52.6695 9.96955 60 9.99991ZM64.76 30.9949L64.27 30.1149C62.37 26.6999 61.42 24.9999 60 24.9999C58.58 24.9999 57.63 26.6999 55.73 30.1149L55.24 30.9949C54.7 31.9649 54.43 32.4449 54.01 32.7649C53.585 33.0849 53.06 33.2049 52.01 33.4399L51.06 33.6599C47.37 34.4949 45.525 34.9099 45.085 36.3199C44.645 37.7299 45.905 39.2049 48.42 42.1449L49.07 42.9049C49.785 43.7399 50.145 44.1549 50.305 44.6749C50.465 45.1949 50.41 45.7499 50.305 46.8649L50.205 47.8799C49.825 51.8049 49.635 53.7699 50.78 54.6399C51.93 55.5099 53.66 54.7149 57.115 53.1249L58.005 52.7149C58.99 52.2649 59.48 52.0399 60 52.0399C60.52 52.0399 61.01 52.2649 61.995 52.7149L62.885 53.1249C66.34 54.7199 68.07 55.5099 69.22 54.6399C70.37 53.7699 70.175 51.8049 69.795 47.8799L69.695 46.8649C69.59 45.7499 69.535 45.1949 69.695 44.6749C69.855 44.1549 70.215 43.7399 70.93 42.9049L71.58 42.1449C74.095 39.2049 75.355 37.7349 74.915 36.3199C74.475 34.9099 72.63 34.4949 68.94 33.6599L67.99 33.4399C66.94 33.2049 66.415 33.0899 65.99 32.7649C65.57 32.4449 65.3 31.9649 64.76 30.9949Z" fill="#BB9B49"/>
</svg>
