<svg width="19" height="20" viewBox="0 0 19 20" fill="none" xmlns="http://www.w3.org/2000/svg">
<path d="M14.0371 15.2361L13.7229 14.922L13.374 15.197C12.3781 15.9818 11.2089 16.5171 9.96405 16.7582C8.71917 16.9993 7.43467 16.9392 6.21773 16.583C5.00079 16.2267 3.88669 15.5846 2.96839 14.7102C2.05009 13.8359 1.35421 12.7546 0.938811 11.5566C0.523413 10.3586 0.400539 9.07863 0.580441 7.82349C0.760343 6.56835 1.2378 5.37443 1.97299 4.34134C2.70818 3.30824 3.67977 2.46594 4.80671 1.88469C5.93366 1.30344 7.18327 1.00011 8.45129 1C9.94435 0.9999 11.4073 1.42014 12.6727 2.21261C13.938 3.00509 14.9547 4.13779 15.6064 5.48108C16.258 6.82437 16.5183 8.32398 16.3575 9.80829C16.1966 11.2926 15.6211 12.7016 14.6968 13.8742L14.4218 14.2231L14.736 14.5373L18.3637 18.1649C18.4522 18.2578 18.5011 18.3816 18.5 18.51C18.4989 18.6396 18.4469 18.7636 18.3552 18.8552C18.2636 18.9469 18.1396 18.9989 18.0099 19C17.8815 19.0011 17.7578 18.9522 17.6648 18.8637L14.0371 15.2361ZM3.52748 4.02804C2.22161 5.33386 1.48798 7.10493 1.48798 8.95164C1.48798 10.7984 2.22161 12.5694 3.52748 13.8752C4.83334 15.1811 6.60448 15.9147 8.45124 15.9147C10.298 15.9147 12.0691 15.1811 13.375 13.8752C14.6809 12.5694 15.4145 10.7984 15.4145 8.95164C15.4145 7.10493 14.6809 5.33386 13.375 4.02804C12.0691 2.72222 10.298 1.98862 8.45124 1.98862C6.60448 1.98862 4.83334 2.72222 3.52748 4.02804Z" stroke="#1C441E"/>
</svg>
