<svg width="20" height="21" viewBox="0 0 20 21" fill="none" xmlns="http://www.w3.org/2000/svg">
<path fill-rule="evenodd" clip-rule="evenodd" d="M10 0.131348C8.40801 0.131348 6.88123 0.763489 5.75552 1.88871C4.62982 3.01393 3.9974 4.54005 3.9974 6.13135V8.00635L3.09701 7.33135C2.99191 7.25255 2.87231 7.19523 2.74504 7.16263C2.61777 7.13004 2.48533 7.12283 2.35527 7.1414C2.22521 7.15997 2.10009 7.20397 1.98704 7.27087C1.87399 7.33778 1.77523 7.42629 1.69641 7.53135C1.61758 7.6364 1.56022 7.75595 1.52762 7.88317C1.49501 8.01038 1.48779 8.14277 1.50637 8.27277C1.52495 8.40277 1.56897 8.52784 1.6359 8.64084C1.70284 8.75384 1.79139 8.85255 1.89649 8.93135L3.7633 10.3313C3.31911 11.4993 2.23564 12.7213 0.48188 13.7743C0.366847 13.8449 0.267126 13.9378 0.188602 14.0475C0.110079 14.1573 0.0543442 14.2816 0.0246897 14.4132C-0.00496479 14.5449 -0.00793852 14.6811 0.015944 14.8139C0.0398266 14.9466 0.0900815 15.0733 0.163742 15.1863C1.28223 16.8633 3.05699 18.1313 4.99783 18.1313C6.78261 18.1313 8.00614 20.1313 10 20.1313C12.0119 20.1313 13.2104 18.1313 15.0022 18.1313C16.943 18.1313 18.7178 16.8633 19.8363 15.1863C19.9099 15.0733 19.9602 14.9466 19.9841 14.8139C20.0079 14.6811 20.005 14.5449 19.9753 14.4132C19.9457 14.2816 19.8899 14.1573 19.8114 14.0475C19.7329 13.9378 19.6332 13.8449 19.5181 13.7743C17.7644 12.7213 16.6809 11.4993 16.2367 10.3313L18.1035 8.93135C18.3158 8.77222 18.4561 8.53532 18.4936 8.27277C18.5312 8.01022 18.4628 7.74352 18.3036 7.53135C18.1444 7.31917 17.9074 7.17891 17.6447 7.1414C17.3821 7.10389 17.1153 7.17222 16.903 7.33135L16.0026 8.00635V6.13135C16.0026 4.54005 15.3702 3.01393 14.2445 1.88871C13.1188 0.763489 11.592 0.131348 10 0.131348Z" fill="#1C441E"/>
</svg>
