<svg width="20" height="20" viewBox="0 0 20 20" fill="none" xmlns="http://www.w3.org/2000/svg">
<path fill-rule="evenodd" clip-rule="evenodd" d="M10 0C4.477 0 0 4.10475 0 9.16853C0 10.9014 0.525 12.5242 1.438 13.9068L0.546 16.6867C0.494785 16.8463 0.491415 17.0156 0.536244 17.1769C0.581074 17.3381 0.672448 17.4852 0.800759 17.6029C0.929071 17.7205 1.08958 17.8043 1.26542 17.8454C1.44125 17.8865 1.62592 17.8834 1.8 17.8365L4.832 17.0186C6.39074 17.8832 8.17824 18.3392 10 18.3371C15.523 18.3371 20 14.2323 20 9.16853C20 4.10475 15.523 0 10 0ZM7.738 11.2434C9.761 13.0972 11.692 13.342 12.374 13.365C13.411 13.3998 14.421 12.6737 14.814 11.8311C14.8632 11.7262 14.881 11.6111 14.8655 11.4978C14.85 11.3845 14.8019 11.2771 14.726 11.1865C14.178 10.5447 13.437 10.0836 12.713 9.62512C12.5619 9.52907 12.3761 9.49049 12.1946 9.51751C12.0131 9.54453 11.8502 9.63504 11.74 9.76999L11.14 10.6089C11.1083 10.6538 11.0591 10.686 11.0025 10.699C10.9459 10.7119 10.886 10.7046 10.835 10.6786C10.428 10.465 9.835 10.1019 9.409 9.71131C8.983 9.32073 8.611 8.80179 8.402 8.45247C8.37672 8.40796 8.36957 8.35665 8.38185 8.30774C8.39413 8.25884 8.42503 8.21555 8.469 8.18566L9.393 7.5567C9.52525 7.45181 9.61063 7.30586 9.63277 7.14682C9.65491 6.98779 9.61226 6.82685 9.513 6.69486C9.065 6.09341 8.543 5.32875 7.786 4.82173C7.6881 4.75724 7.57369 4.71702 7.45385 4.70497C7.33402 4.69292 7.21282 4.70946 7.102 4.75297C6.182 5.11421 5.386 6.04023 5.424 6.99284C5.449 7.61813 5.716 9.38857 7.738 11.2434Z" fill="#1C441E"/>
</svg>
