<svg width="18" height="18" viewBox="0 0 18 18" fill="none" xmlns="http://www.w3.org/2000/svg">
<path d="M7.2 12.8571L11.871 9L7.2 5.14286V12.8571ZM17.604 2.79C17.721 3.39429 17.802 4.20429 17.856 5.23286C17.919 6.26143 17.946 7.14857 17.946 7.92L18 9C18 11.8157 17.856 13.8857 17.604 15.21C17.379 16.3671 16.857 17.1129 16.047 17.4343C15.624 17.6014 14.85 17.7171 13.662 17.7943C12.492 17.8843 11.421 17.9229 10.431 17.9229L9 18C5.229 18 2.88 17.7943 1.953 17.4343C1.143 17.1129 0.621 16.3671 0.396 15.21C0.279 14.6057 0.198 13.7957 0.144 12.7671C0.0810001 11.7386 0.0539999 10.8514 0.0539999 10.08L0 9C0 6.18429 0.144 4.11429 0.396 2.79C0.621 1.63286 1.143 0.887143 1.953 0.565714C2.376 0.398571 3.15 0.282857 4.338 0.205714C5.508 0.115714 6.579 0.0771428 7.569 0.0771428L9 0C12.771 0 15.12 0.205714 16.047 0.565714C16.857 0.887143 17.379 1.63286 17.604 2.79Z" fill="#1C441E"/>
</svg>
