<svg width="24" height="24" viewBox="0 0 24 24" fill="none" xmlns="http://www.w3.org/2000/svg">
<path d="M12 23C10.1333 23 8.41667 22.575 6.85 21.725C5.28333 20.875 4 19.7417 3 18.325V21H1V15H7V17H4.525C5.325 18.2 6.37933 19.1667 7.688 19.9C8.99667 20.6333 10.434 21 12 21C13.25 21 14.421 20.7627 15.513 20.288C16.605 19.8133 17.555 19.1717 18.363 18.363C19.171 17.5543 19.8127 16.6043 20.288 15.513C20.7633 14.4217 21.0007 13.2507 21 12H23C23 13.5167 22.7127 14.9417 22.138 16.275C21.5633 17.6083 20.7757 18.775 19.775 19.775C18.7743 20.775 17.6077 21.5627 16.275 22.138C14.9423 22.7133 13.5173 23.0007 12 23ZM11.1 19V17.7C10.3167 17.5167 9.67933 17.1793 9.188 16.688C8.69667 16.1967 8.334 15.5507 8.1 14.75L9.75 14.1C9.95 14.7833 10.2627 15.296 10.688 15.638C11.1133 15.98 11.6007 16.1507 12.15 16.15C12.6993 16.1493 13.1703 16.0203 13.563 15.763C13.9557 15.5057 14.1513 15.1013 14.15 14.55C14.15 14.0667 13.946 13.675 13.538 13.375C13.13 13.075 12.4007 12.7333 11.35 12.35C10.3667 12 9.646 11.5833 9.188 11.1C8.73 10.6167 8.50067 9.98333 8.5 9.2C8.5 8.51667 8.73767 7.896 9.213 7.338C9.68833 6.78 10.334 6.41733 11.15 6.25V5H12.9V6.25C13.5 6.3 14.046 6.54167 14.538 6.975C15.03 7.40833 15.3673 7.91667 15.55 8.5L13.95 9.15C13.8167 8.76667 13.6 8.446 13.3 8.188C13 7.93 12.5833 7.80067 12.05 7.8C11.4667 7.8 11.0207 7.925 10.712 8.175C10.4033 8.425 10.2493 8.76667 10.25 9.2C10.2507 9.63333 10.4423 9.975 10.825 10.225C11.2077 10.475 11.8993 10.7667 12.9 11.1C14.1 11.5333 14.9 12.0417 15.3 12.625C15.7 13.2083 15.9 13.85 15.9 14.55C15.9 15.0333 15.8167 15.4583 15.65 15.825C15.4833 16.1917 15.2623 16.5043 14.987 16.763C14.7117 17.0217 14.391 17.23 14.025 17.388C13.659 17.546 13.2673 17.6667 12.85 17.75V19H11.1ZM1 12C1 10.4833 1.28767 9.05833 1.863 7.725C2.43833 6.39167 3.22567 5.225 4.225 4.225C5.22433 3.225 6.391 2.43767 7.725 1.863C9.059 1.28833 10.484 1.00067 12 1C13.8667 1 15.5833 1.425 17.15 2.275C18.7167 3.125 20 4.25833 21 5.675V3H23V9H17V7H19.475C18.675 5.8 17.621 4.83333 16.313 4.1C15.005 3.36667 13.5673 3 12 3C10.75 3 9.57933 3.23767 8.488 3.713C7.39667 4.18833 6.44667 4.82967 5.638 5.637C4.82933 6.44433 4.18767 7.39433 3.713 8.487C3.23833 9.57967 3.00067 10.7507 3 12H1Z" fill="#1C441E"/>
</svg>
