<svg width="19" height="21" viewBox="0 0 19 21" fill="none" xmlns="http://www.w3.org/2000/svg">
<path fill-rule="evenodd" clip-rule="evenodd" d="M11.3253 1.74999H6.67527C6.52829 2.47066 6.17263 3.13219 5.65255 3.65227C5.13247 4.17235 4.47094 4.52801 3.75027 4.67499V5.32499C4.47094 5.47196 5.13247 5.82762 5.65255 6.3477C6.17263 6.86778 6.52829 7.52932 6.67527 8.24999H11.3253C11.4722 7.52932 11.8279 6.86778 12.348 6.3477C12.8681 5.82762 13.5296 5.47196 14.2503 5.32499V4.67499C13.5296 4.52801 12.8681 4.17235 12.348 3.65227C11.8279 3.13219 11.4722 2.47066 11.3253 1.74999ZM11.9303 0.252986C11.6556 0.25032 11.3629 0.24932 11.0523 0.249986H6.94827C6.6376 0.249986 6.34527 0.250986 6.07127 0.252986C6.01661 0.249494 5.96176 0.250497 5.90727 0.255986C5.45527 0.263986 5.05427 0.282986 4.70627 0.329986C4.07827 0.413986 3.51127 0.599986 3.05627 1.05499C2.60027 1.51099 2.41427 2.07799 2.33027 2.70499C2.28327 3.05399 2.26427 3.45499 2.25627 3.90699C2.25083 3.96115 2.24983 4.01566 2.25327 4.06999C2.2506 4.34532 2.2496 4.63799 2.25027 4.94799V5.05199C2.25027 5.36199 2.25127 5.65465 2.25327 5.92999C2.24983 5.98431 2.25083 6.03883 2.25627 6.09299C2.26427 6.54599 2.28327 6.94599 2.33027 7.29399C2.41427 7.92199 2.60027 8.48899 3.05627 8.94399C3.51127 9.39999 4.07827 9.58599 4.70627 9.66999C5.05427 9.71699 5.45527 9.73599 5.90727 9.74399C5.96176 9.74948 6.01661 9.75048 6.07127 9.74699C6.34527 9.74965 6.6376 9.75065 6.94827 9.74999H11.0523C11.3623 9.74999 11.6549 9.74899 11.9303 9.74699C11.9846 9.75042 12.0391 9.74942 12.0933 9.74399C12.5463 9.73599 12.9473 9.71699 13.2943 9.66999C13.9223 9.58599 14.4893 9.39999 14.9443 8.94399C15.4003 8.48899 15.5863 7.92199 15.6703 7.29399C15.7168 6.8953 15.7415 6.49437 15.7443 6.09299C15.7497 6.03883 15.7507 5.98431 15.7473 5.92999C15.7499 5.65465 15.7509 5.36199 15.7503 5.05199V4.94799C15.7503 4.63799 15.7493 4.34532 15.7473 4.06999C15.7507 4.01566 15.7497 3.96115 15.7443 3.90699C15.7415 3.5056 15.7168 3.10467 15.6703 2.70599C15.5863 2.07799 15.4003 1.51099 14.9453 1.05599C14.4893 0.599986 13.9223 0.413986 13.2953 0.329986C12.8963 0.283389 12.495 0.258686 12.0933 0.255986C12.0391 0.250552 11.9846 0.249548 11.9303 0.252986ZM12.8943 1.79399C13.0077 2.09306 13.1832 2.36467 13.4094 2.59084C13.6356 2.81701 13.9072 2.99259 14.2063 3.10599C14.1999 3.03917 14.1923 2.97249 14.1833 2.90599C14.1223 2.44399 14.0143 2.24599 13.8833 2.11599C13.7523 1.98599 13.5563 1.87899 13.0953 1.81599C13.0288 1.80731 12.9621 1.79998 12.8953 1.79399M14.2073 6.89399C13.9082 7.00738 13.6366 7.18297 13.4104 7.40914C13.1842 7.63531 13.0087 7.90691 12.8953 8.20599C12.9653 8.19932 13.0319 8.19199 13.0953 8.18399C13.5573 8.12099 13.7553 8.01399 13.8853 7.88399C14.0153 7.75399 14.1233 7.55599 14.1853 7.09399C14.1933 7.03065 14.2006 6.96399 14.2073 6.89399ZM5.10727 8.20599C4.99387 7.90691 4.81829 7.63531 4.59212 7.40914C4.36595 7.18297 4.09434 7.00738 3.79527 6.89399C3.80193 6.96399 3.8096 7.03065 3.81827 7.09399C3.88027 7.55599 3.98727 7.75399 4.11827 7.88399C4.24927 8.01399 4.44527 8.12099 4.90627 8.18399C4.97027 8.19199 5.03727 8.19932 5.10727 8.20599ZM3.79527 3.10599C4.09434 2.99259 4.36595 2.81701 4.59212 2.59084C4.81829 2.36467 4.99387 2.09306 5.10727 1.79399C5.03727 1.80065 4.9706 1.80832 4.90727 1.81699C4.44527 1.87899 4.24727 1.98599 4.11727 2.11699C3.98727 2.24799 3.88027 2.44399 3.81727 2.90499L3.79527 3.10599ZM9.00027 4.74999C8.93396 4.74999 8.87037 4.77633 8.82349 4.82321C8.77661 4.87009 8.75027 4.93368 8.75027 4.99999C8.75027 5.06629 8.77661 5.12988 8.82349 5.17676C8.87037 5.22365 8.93396 5.24999 9.00027 5.24999C9.06657 5.24999 9.13016 5.22365 9.17704 5.17676C9.22393 5.12988 9.25027 5.06629 9.25027 4.99999C9.25027 4.93368 9.22393 4.87009 9.17704 4.82321C9.13016 4.77633 9.06657 4.74999 9.00027 4.74999ZM7.25027 4.99999C7.25027 4.53586 7.43464 4.09074 7.76283 3.76255C8.09102 3.43436 8.53614 3.24999 9.00027 3.24999C9.4644 3.24999 9.90952 3.43436 10.2377 3.76255C10.5659 4.09074 10.7503 4.53586 10.7503 4.99999C10.7503 5.46412 10.5659 5.90924 10.2377 6.23742C9.90952 6.56561 9.4644 6.74999 9.00027 6.74999C8.53614 6.74999 8.09102 6.56561 7.76283 6.23742C7.43464 5.90924 7.25027 5.46412 7.25027 4.99999ZM5.68427 12.448C7.55027 12.087 9.54727 12.168 11.1643 13.132C11.3903 13.267 11.6043 13.436 11.7893 13.644C12.1653 14.067 12.3593 14.591 12.3683 15.117C12.5589 14.993 12.7513 14.8573 12.9453 14.71L14.7533 13.345C15.2062 13.0126 15.7534 12.8333 16.3153 12.8333C16.8771 12.8333 17.4243 13.0126 17.8773 13.345C18.7123 13.975 19.0463 15.108 18.4473 16.068C18.0223 16.749 17.3823 17.692 16.7303 18.296C16.0703 18.906 15.1333 19.42 14.4243 19.762C13.5623 20.178 12.6323 20.408 11.7273 20.554C9.87727 20.854 7.95327 20.808 6.12527 20.431C5.18256 20.2372 4.22269 20.139 3.26027 20.138H1.00027C0.801354 20.138 0.610589 20.059 0.469937 19.9183C0.329284 19.7777 0.250267 19.5869 0.250267 19.388C0.250267 19.1891 0.329284 18.9983 0.469937 18.8577C0.610589 18.717 0.801354 18.638 1.00027 18.638H3.26027C4.32227 18.638 5.39527 18.749 6.42827 18.962C8.09443 19.3039 9.80871 19.3415 11.4883 19.073C12.3163 18.939 13.0903 18.74 13.7723 18.411C14.4553 18.081 15.2233 17.647 15.7103 17.196C16.2033 16.739 16.7543 15.948 17.1753 15.274C17.3023 15.07 17.2843 14.777 16.9733 14.542C16.6033 14.262 16.0263 14.262 15.6573 14.542L13.8503 15.907C13.1283 16.452 12.2403 17.035 11.1393 17.211C11.0239 17.2292 10.9082 17.2452 10.7923 17.259C10.7349 17.269 10.6753 17.2757 10.6133 17.279C9.97078 17.3413 9.32376 17.3413 8.68127 17.279C8.58166 17.2718 8.4845 17.2447 8.39548 17.1995C8.30647 17.1542 8.22739 17.0916 8.16289 17.0153C8.09839 16.9391 8.04976 16.8507 8.01987 16.7554C7.98998 16.6602 7.97942 16.5599 7.98881 16.4604C7.9982 16.361 8.02735 16.2645 8.07455 16.1765C8.12176 16.0884 8.18606 16.0107 8.2637 15.9479C8.34133 15.8851 8.43073 15.8384 8.52665 15.8106C8.62256 15.7828 8.72307 15.7744 8.82227 15.786C9.37702 15.8397 9.93571 15.8387 10.4903 15.783L10.5203 15.78C10.6136 15.7221 10.6929 15.6442 10.7524 15.5519C10.812 15.4597 10.8503 15.3554 10.8646 15.2465C10.879 15.1376 10.869 15.0269 10.8354 14.9224C10.8018 14.8179 10.7454 14.7221 10.6703 14.642C10.5901 14.5548 10.4974 14.48 10.3953 14.42C9.21427 13.715 7.63627 13.598 5.96927 13.92C4.34082 14.2469 2.7971 14.9056 1.43427 15.855C1.3539 15.912 1.26309 15.9526 1.16703 15.9745C1.07097 15.9964 0.971532 15.9991 0.874402 15.9826C0.777272 15.9661 0.684348 15.9306 0.600937 15.8782C0.517526 15.8257 0.44526 15.7574 0.388267 15.677C0.331273 15.5966 0.290667 15.5058 0.268768 15.4097C0.246868 15.3137 0.244104 15.2143 0.260633 15.1171C0.294014 14.921 0.403954 14.7461 0.566267 14.631C2.10359 13.5584 3.84605 12.8152 5.68427 12.448Z" fill="#1C441E"/>
</svg>
