<svg width="24" height="24" viewBox="0 0 24 24" fill="none" xmlns="http://www.w3.org/2000/svg">
<path d="M8.61538 15.3846H12.8462C13.7769 15.3846 14.5385 14.6231 14.5385 13.6923C14.5385 12.7615 13.7769 12 12.8462 12H11.1538C10.2231 12 9.46154 11.2385 9.46154 10.3077C9.46154 9.37692 10.2231 8.61538 11.1538 8.61538H15.3846M12 6.07692V8.05185M12 14.5385V17.9231M23 12C23 14.9174 21.8411 17.7153 19.7782 19.7782C17.7153 21.8411 14.9174 23 12 23C9.08262 23 6.28473 21.8411 4.22183 19.7782C2.15893 17.7153 1 14.9174 1 12C1 9.08262 2.15893 6.28473 4.22183 4.22183C6.28473 2.15893 9.08262 1 12 1C14.9174 1 17.7153 2.15893 19.7782 4.22183C21.8411 6.28473 23 9.08262 23 12Z" stroke="#1C441E" stroke-width="2" stroke-miterlimit="10" stroke-linejoin="round"/>
</svg>
