<svg width="23" height="22" viewBox="0 0 23 22" fill="none" xmlns="http://www.w3.org/2000/svg">
<path d="M21.5 11C21.5 12.3133 21.2414 13.6137 20.7388 14.827C20.2362 16.0404 19.4996 17.1428 18.5709 18.0714C17.6423 19.0001 16.5399 19.7367 15.3265 20.2393C14.1132 20.7418 12.8128 21.0005 11.4995 21.0005C10.1862 21.0005 8.88581 20.7418 7.6725 20.2393C6.45918 19.7367 5.35673 19.0001 4.4281 18.0714C3.49947 17.1428 2.76284 16.0404 2.26027 14.827C1.75769 13.6137 1.49902 12.3133 1.49902 11C1.49902 8.34771 2.55264 5.80405 4.4281 3.92859C6.30356 2.05313 8.84723 0.999512 11.4995 0.999512C14.1518 0.999512 16.6955 2.05313 18.5709 3.92859C20.4464 5.80405 21.5 8.34771 21.5 11Z" stroke="#1C441E" stroke-width="1.5"/>
<path d="M15.5001 11C15.5001 12.313 15.3961 13.614 15.1951 14.827C14.9951 16.04 14.7001 17.142 14.3281 18.071C13.9571 19 13.5161 19.736 13.0311 20.239C12.5451 20.741 12.0251 21 11.5001 21C10.9751 21 10.4551 20.741 9.97006 20.239C9.48406 19.736 9.04305 18.999 8.67205 18.071C8.30005 17.142 8.00505 16.041 7.80405 14.827C7.59896 13.5617 7.49729 12.2818 7.50005 11C7.50005 9.687 7.60305 8.386 7.80405 7.173C8.00505 5.96 8.30005 4.858 8.67205 3.929C9.04305 3 9.48405 2.264 9.96905 1.761C10.4551 1.26 10.9751 1 11.5001 1C12.0251 1 12.5451 1.259 13.0301 1.761C13.5161 2.264 13.9571 3.001 14.3281 3.929C14.7001 4.858 14.9951 5.959 15.1951 7.173C15.3971 8.386 15.5001 9.687 15.5001 11Z" stroke="#1C441E" stroke-width="1.5"/>
<path d="M1.5 11H21.5" stroke="#1C441E" stroke-width="1.5" stroke-linecap="round"/>
</svg>
