<svg width="24" height="22" viewBox="0 0 24 22" fill="none" xmlns="http://www.w3.org/2000/svg">
<path d="M6.75391 12.5C7.35064 12.5 7.92294 12.2629 8.3449 11.841C8.76685 11.419 9.00391 10.8467 9.00391 10.25C9.00391 9.65326 8.76685 9.08097 8.3449 8.65901C7.92294 8.23705 7.35064 8 6.75391 8C6.15717 8 5.58487 8.23705 5.16292 8.65901C4.74096 9.08097 4.50391 9.65326 4.50391 10.25C4.50391 10.8467 4.74096 11.419 5.16292 11.841C5.58487 12.2629 6.15717 12.5 6.75391 12.5Z" fill="#212529"/>
<path d="M21.0039 18.5C21.0039 19.2956 20.6878 20.0587 20.1252 20.6213C19.5626 21.1839 18.7996 21.5 18.0039 21.5H3.00391C2.20826 21.5 1.44519 21.1839 0.882586 20.6213C0.319977 20.0587 0.00390625 19.2956 0.00390625 18.5V6.5C0.00390585 5.70487 0.319565 4.94226 0.881525 4.37974C1.44349 3.81722 2.20578 3.50079 3.00091 3.5C3.00091 2.70435 3.31698 1.94129 3.87959 1.37868C4.44219 0.816071 5.20526 0.5 6.00091 0.5H21.0009C21.7966 0.5 22.5596 0.816071 23.1222 1.37868C23.6848 1.94129 24.0009 2.70435 24.0009 3.5V15.5C24.0009 16.2951 23.6852 17.0577 23.1233 17.6203C22.5613 18.1828 21.799 18.4992 21.0039 18.5ZM21.0009 2H6.00091C5.60308 2 5.22155 2.15804 4.94025 2.43934C4.65894 2.72064 4.50091 3.10218 4.50091 3.5H18.0039C18.7996 3.5 19.5626 3.81607 20.1252 4.37868C20.6878 4.94129 21.0039 5.70435 21.0039 6.5V17C21.4012 16.9992 21.782 16.8408 22.0626 16.5596C22.3433 16.2784 22.5009 15.8973 22.5009 15.5V3.5C22.5009 3.10218 22.3429 2.72064 22.0616 2.43934C21.7803 2.15804 21.3987 2 21.0009 2ZM3.00391 5C2.60608 5 2.22455 5.15804 1.94325 5.43934C1.66194 5.72064 1.50391 6.10218 1.50391 6.5V18.5L5.47291 14.969C5.59551 14.8468 5.75658 14.7709 5.92881 14.7539C6.10105 14.737 6.27385 14.7801 6.41791 14.876L10.4079 17.5355L15.9729 11.9705C16.0841 11.8592 16.2276 11.7856 16.3829 11.7603C16.5382 11.735 16.6976 11.7592 16.8384 11.8295L19.5039 14.75V6.5C19.5039 6.10218 19.3459 5.72064 19.0646 5.43934C18.7833 5.15804 18.4017 5 18.0039 5H3.00391Z" fill="#212529"/>
</svg>
