<svg width="20" height="16" viewBox="0 0 20 16" fill="none" xmlns="http://www.w3.org/2000/svg">
<rect x="0.35" y="0.35" width="19.3" height="15.3" rx="3.65" fill="white"/>
<rect x="0.35" y="0.35" width="19.3" height="15.3" rx="3.65" stroke="#C5CDD0" stroke-width="0.7"/>
<g clip-path="url(#clip0_13_1182)">
<path d="M8.10254 4.45079H11.8842V11.4399H8.10254V4.45079Z" fill="#FF5F00"/>
<path d="M8.34237 7.94538C8.34237 6.52535 8.99063 5.2658 9.98704 4.45079C9.25477 3.85809 8.33039 3.5 7.32195 3.5C4.93282 3.5 3 5.48804 3 7.94538C3 10.4027 4.93282 12.3908 7.3219 12.3908C8.33034 12.3908 9.25472 12.0327 9.98704 11.4399C8.99063 10.6373 8.34237 9.36541 8.34237 7.94538Z" fill="#EB001B"/>
<path d="M16.9861 7.94538C16.9861 10.4027 15.0532 12.3908 12.6642 12.3908C11.6557 12.3908 10.7313 12.0327 9.99902 11.4399C11.0075 10.625 11.6437 9.36541 11.6437 7.94538C11.6437 6.52535 10.9954 5.2658 9.99902 4.45079C10.7313 3.85809 11.6557 3.5 12.6642 3.5C15.0532 3.5 16.9861 5.50042 16.9861 7.94538Z" fill="#F79E1B"/>
</g>
<defs>
<clipPath id="clip0_13_1182">
<rect width="14" height="9" fill="white" transform="translate(3 3.5)"/>
</clipPath>
</defs>
</svg>
