<svg width="20" height="16" viewBox="0 0 20 16" fill="none" xmlns="http://www.w3.org/2000/svg">
<rect x="0.35" y="0.35" width="19.3" height="15.3" rx="1.65" fill="white"/>
<rect x="0.35" y="0.35" width="19.3" height="15.3" rx="1.65" stroke="#C5CDD0" stroke-width="0.7"/>
<g clip-path="url(#clip0_13_1198)">
<path d="M12.7864 4.27838C12.3509 3.75249 11.5638 3.52702 10.5569 3.52702H7.63435C7.53472 3.52703 7.43836 3.56469 7.36259 3.63324C7.28683 3.70179 7.23662 3.79673 7.22101 3.901L6.00413 12.0787C5.97995 12.24 6.09779 12.386 6.25204 12.386H8.05629L8.50942 9.3406L8.49535 9.43596C8.52763 9.2207 8.70138 9.06192 8.90713 9.06192H9.76451C11.4488 9.06192 12.7677 8.33702 13.1529 6.24004C13.1644 6.17802 13.1743 6.11765 13.1828 6.05868C13.1342 6.03139 13.1342 6.03139 13.1828 6.05868C13.2975 5.28361 13.182 4.75603 12.7864 4.27838Z" fill="#27346A"/>
<path d="M9.19979 5.77947C9.24912 5.75459 9.30307 5.74169 9.3577 5.74172H11.6489C11.9202 5.74172 12.1733 5.76043 12.4045 5.79987C12.4692 5.8108 12.5336 5.82386 12.5975 5.83901C12.6882 5.8602 12.7778 5.88614 12.866 5.91673C12.9797 5.95696 13.0855 6.00381 13.1829 6.05868C13.2975 5.28331 13.182 4.75603 12.7864 4.27838C12.3507 3.75249 11.5638 3.52702 10.5569 3.52702H7.6341C7.42832 3.52702 7.25326 3.68577 7.22101 3.901L6.00413 12.0784C5.97995 12.2399 6.09779 12.3858 6.25179 12.3858H8.05629L8.99638 6.06888C9.00563 6.00679 9.02897 5.94801 9.0644 5.89759C9.09984 5.84718 9.1463 5.80664 9.19979 5.77947Z" fill="#27346A"/>
<path d="M13.1527 6.24004C12.7675 8.33672 11.4486 9.06192 9.7643 9.06192H8.90667C8.70092 9.06192 8.52714 9.2207 8.49517 9.43596L7.93145 13.2226C7.91039 13.3637 8.01339 13.4916 8.14814 13.4916H9.66908C9.7562 13.4915 9.84046 13.4586 9.9067 13.3986C9.97293 13.3386 10.0168 13.2556 10.0304 13.1644L10.0452 13.0823L10.3319 11.1573L10.3504 11.0509C10.364 10.9597 10.4078 10.8766 10.4741 10.8167C10.5403 10.7567 10.6246 10.7237 10.7117 10.7237H10.9393C12.4126 10.7237 13.5663 10.0895 13.9034 8.25517C14.0441 7.48861 13.9713 6.84861 13.5991 6.39907C13.4862 6.26292 13.346 6.15047 13.1826 6.05868C13.1738 6.11795 13.1642 6.17802 13.1527 6.24004Z" fill="#2790C3"/>
<path d="M12.7801 5.88834C12.7201 5.86975 12.6594 5.8533 12.5983 5.839C12.5343 5.8241 12.47 5.81113 12.4053 5.80013C12.1738 5.76043 11.9209 5.74168 11.6493 5.74168H9.35844C9.30376 5.74155 9.24977 5.75456 9.20053 5.77973C9.14698 5.80682 9.10046 5.84733 9.06502 5.89776C9.02957 5.94819 9.00625 6.00701 8.99709 6.06914L8.51016 9.34059L8.49609 9.43596C8.52812 9.22069 8.70187 9.06192 8.90766 9.06192H9.76528C11.4496 9.06192 12.7684 8.33702 13.1537 6.24003C13.1651 6.17801 13.1747 6.11791 13.1836 6.05867C13.086 6.0041 12.9804 5.95695 12.8667 5.91698C12.838 5.9069 12.8092 5.89735 12.7802 5.88834" fill="#1F264F"/>
</g>
<defs>
<clipPath id="clip0_13_1198">
<rect width="8" height="10" fill="white" transform="translate(6 3.5)"/>
</clipPath>
</defs>
</svg>
