<svg width="20" height="20" viewBox="0 0 20 20" fill="none" xmlns="http://www.w3.org/2000/svg">
<mask id="path-1-inside-1_409_8249" fill="white">
<path d="M19.0058 1.23362C18.3674 0.59656 17.5024 0.23877 16.6005 0.23877C15.6987 0.23877 14.8337 0.59656 14.1953 1.23362L7.82029 7.60862C7.73793 7.69073 7.6758 7.79087 7.63879 7.90112L5.76379 13.5261C5.71962 13.6582 5.71311 13.8 5.745 13.9356C5.77689 14.0712 5.84591 14.1953 5.94433 14.2939C6.04276 14.3924 6.16669 14.4617 6.30224 14.4938C6.4378 14.5259 6.57961 14.5196 6.71179 14.4756L12.3368 12.6006C12.4476 12.5638 12.5483 12.5017 12.6308 12.4191L19.0058 6.04412C19.6429 5.40576 20.0006 4.54074 20.0006 3.63888C20.0006 2.73701 19.6429 1.87199 19.0058 1.23362ZM15.2558 2.29413C15.6143 1.94671 16.0951 1.7542 16.5943 1.75813C17.0936 1.76207 17.5712 1.96214 17.9243 2.31516C18.2773 2.66818 18.4774 3.14585 18.4813 3.64508C18.4852 4.14432 18.2927 4.62508 17.9453 4.98362L11.6948 11.2326L7.65979 12.5781L9.00529 8.54313L15.2558 2.29413ZM9.47479 3.26312C9.65879 3.26312 9.84179 3.26962 10.0238 3.28262L11.3483 1.95813C9.4498 1.55447 7.47168 1.77538 5.70899 2.58789C3.94631 3.4004 2.49353 4.76099 1.56735 6.46668C0.641162 8.17238 0.291211 10.1318 0.569692 12.0526C0.848174 13.9735 1.74017 15.7529 3.11261 17.1253C4.48506 18.4978 6.26442 19.3897 8.18527 19.6682C10.1061 19.9467 12.0655 19.5968 13.7712 18.6706C15.4769 17.7444 16.8375 16.2916 17.65 14.5289C18.4625 12.7662 18.6834 10.7881 18.2798 8.88962L16.9553 10.2156C16.9683 10.3956 16.9748 10.5781 16.9748 10.7631C16.9748 12.2465 16.5349 13.6965 15.7108 14.9299C14.8867 16.1633 13.7154 17.1246 12.3449 17.6922C10.9745 18.2599 9.46647 18.4084 8.01162 18.119C6.55676 17.8296 5.22039 17.1153 4.17149 16.0664C3.1226 15.0175 2.40829 13.6812 2.1189 12.2263C1.82951 10.7714 1.97804 9.26344 2.5457 7.893C3.11335 6.52255 4.07465 5.35121 5.30802 4.5271C6.54139 3.70299 7.99143 3.26312 9.47479 3.26312Z"/>
</mask>
<path d="M19.0058 1.23362C18.3674 0.59656 17.5024 0.23877 16.6005 0.23877C15.6987 0.23877 14.8337 0.59656 14.1953 1.23362L7.82029 7.60862C7.73793 7.69073 7.6758 7.79087 7.63879 7.90112L5.76379 13.5261C5.71962 13.6582 5.71311 13.8 5.745 13.9356C5.77689 14.0712 5.84591 14.1953 5.94433 14.2939C6.04276 14.3924 6.16669 14.4617 6.30224 14.4938C6.4378 14.5259 6.57961 14.5196 6.71179 14.4756L12.3368 12.6006C12.4476 12.5638 12.5483 12.5017 12.6308 12.4191L19.0058 6.04412C19.6429 5.40576 20.0006 4.54074 20.0006 3.63888C20.0006 2.73701 19.6429 1.87199 19.0058 1.23362ZM15.2558 2.29413C15.6143 1.94671 16.0951 1.7542 16.5943 1.75813C17.0936 1.76207 17.5712 1.96214 17.9243 2.31516C18.2773 2.66818 18.4774 3.14585 18.4813 3.64508C18.4852 4.14432 18.2927 4.62508 17.9453 4.98362L11.6948 11.2326L7.65979 12.5781L9.00529 8.54313L15.2558 2.29413ZM9.47479 3.26312C9.65879 3.26312 9.84179 3.26962 10.0238 3.28262L11.3483 1.95813C9.4498 1.55447 7.47168 1.77538 5.70899 2.58789C3.94631 3.4004 2.49353 4.76099 1.56735 6.46668C0.641162 8.17238 0.291211 10.1318 0.569692 12.0526C0.848174 13.9735 1.74017 15.7529 3.11261 17.1253C4.48506 18.4978 6.26442 19.3897 8.18527 19.6682C10.1061 19.9467 12.0655 19.5968 13.7712 18.6706C15.4769 17.7444 16.8375 16.2916 17.65 14.5289C18.4625 12.7662 18.6834 10.7881 18.2798 8.88962L16.9553 10.2156C16.9683 10.3956 16.9748 10.5781 16.9748 10.7631C16.9748 12.2465 16.5349 13.6965 15.7108 14.9299C14.8867 16.1633 13.7154 17.1246 12.3449 17.6922C10.9745 18.2599 9.46647 18.4084 8.01162 18.119C6.55676 17.8296 5.22039 17.1153 4.17149 16.0664C3.1226 15.0175 2.40829 13.6812 2.1189 12.2263C1.82951 10.7714 1.97804 9.26344 2.5457 7.893C3.11335 6.52255 4.07465 5.35121 5.30802 4.5271C6.54139 3.70299 7.99143 3.26312 9.47479 3.26312Z" fill="#1C441E"/>
<path d="M19.0058 1.23362L20.4214 -0.179153L20.4186 -0.182025L19.0058 1.23362ZM16.6005 0.23877V-1.76123V0.23877ZM14.1953 1.23362L12.7825 -0.182026L12.7811 -0.180589L14.1953 1.23362ZM7.82029 7.60862L9.23235 9.02499L9.23451 9.02284L7.82029 7.60862ZM7.63879 7.90112L5.74273 7.26476L5.74143 7.26867L7.63879 7.90112ZM5.76379 13.5261L7.66057 14.1603L7.66116 14.1586L5.76379 13.5261ZM6.71179 14.4756L7.34302 16.3734L7.34425 16.373L6.71179 14.4756ZM12.3368 12.6006L11.7064 10.7026L11.7043 10.7033L12.3368 12.6006ZM12.6308 12.4191L11.2166 11.0049L11.2164 11.0051L12.6308 12.4191ZM19.0058 6.04412L20.42 7.45834L20.4214 7.4569L19.0058 6.04412ZM20.0006 3.63888H18.0006H20.0006ZM15.2558 2.29413L13.864 0.857795L13.8528 0.868681L13.8417 0.879742L15.2558 2.29413ZM17.9453 4.98362L19.3593 6.39801L19.3706 6.38678L19.3816 6.37537L17.9453 4.98362ZM11.6948 11.2326L12.3275 13.1299L12.7751 12.9806L13.1088 12.647L11.6948 11.2326ZM7.65979 12.5781L5.7625 11.9455L4.49681 15.7411L8.29246 14.4754L7.65979 12.5781ZM9.00529 8.54313L7.59125 7.12874L7.25735 7.46256L7.108 7.91046L9.00529 8.54313ZM10.0238 3.28262L9.8813 5.27754L10.7922 5.34261L11.438 4.69684L10.0238 3.28262ZM11.3483 1.95813L12.7625 3.37234L15.367 0.767862L11.7642 0.00185414L11.3483 1.95813ZM18.2798 8.88962L20.2361 8.47369L19.4695 4.8685L16.8648 7.47621L18.2798 8.88962ZM16.9553 10.2156L15.5403 8.80221L14.8947 9.44854L14.9605 10.3597L16.9553 10.2156ZM16.9748 10.7631H14.9748H16.9748ZM20.4186 -0.182025C19.4053 -1.19328 18.0321 -1.76123 16.6005 -1.76123V2.23877C16.9727 2.23877 17.3296 2.3864 17.593 2.64928L20.4186 -0.182025ZM16.6005 -1.76123C15.169 -1.76123 13.7958 -1.19328 12.7825 -0.182025L15.6081 2.64928C15.8715 2.3864 16.2284 2.23877 16.6005 2.23877V-1.76123ZM12.7811 -0.180589L6.40608 6.19441L9.23451 9.02284L15.6095 2.64784L12.7811 -0.180589ZM6.40823 6.19226C6.10625 6.49333 5.87841 6.8605 5.74273 7.26476L9.53485 8.53749C9.47318 8.72124 9.36962 8.88814 9.23235 9.02499L6.40823 6.19226ZM5.74143 7.26867L3.86643 12.8937L7.66116 14.1586L9.53616 8.53358L5.74143 7.26867ZM3.86702 12.8919C3.70505 13.3763 3.68118 13.8963 3.79811 14.3935L7.69189 13.4778C7.74504 13.7038 7.73419 13.9402 7.66057 14.1603L3.86702 12.8919ZM3.79811 14.3935C3.91503 14.8907 4.16812 15.3455 4.529 15.707L7.35967 12.8808C7.5237 13.0451 7.63874 13.2518 7.69189 13.4778L3.79811 14.3935ZM4.529 15.707C4.88989 16.0684 5.34431 16.3222 5.84134 16.4399L6.76315 12.5476C6.98908 12.6011 7.19563 12.7165 7.35967 12.8808L4.529 15.707ZM5.84134 16.4399C6.33836 16.5576 6.85835 16.5346 7.34302 16.3734L6.08057 12.5778C6.30087 12.5046 6.53723 12.4941 6.76315 12.5476L5.84134 16.4399ZM7.34425 16.373L12.9692 14.498L11.7043 10.7033L6.07934 12.5783L7.34425 16.373ZM12.9672 14.4987C13.3734 14.3638 13.7425 14.1359 14.0452 13.8332L11.2164 11.0051C11.354 10.8675 11.5218 10.7639 11.7064 10.7026L12.9672 14.4987ZM14.045 13.8333L20.42 7.45834L17.5916 4.62991L11.2166 11.0049L14.045 13.8333ZM20.4214 7.4569C21.4327 6.44358 22.0006 5.07047 22.0006 3.63888H18.0006C18.0006 4.01101 17.853 4.36794 17.5901 4.63135L20.4214 7.4569ZM22.0006 3.63888C22.0006 2.20728 21.4327 0.834166 20.4214 -0.179151L17.5901 2.6464C17.853 2.90981 18.0006 3.26674 18.0006 3.63888H22.0006ZM16.6475 3.73046C16.6291 3.74836 16.6043 3.75827 16.5786 3.75807L16.6101 -0.241804C15.5859 -0.249877 14.5996 0.145067 13.864 0.857795L16.6475 3.73046ZM16.5786 3.75807C16.5528 3.75787 16.5282 3.74756 16.51 3.72937L19.3385 0.900944C18.6142 0.17671 17.6343 -0.233731 16.6101 -0.241804L16.5786 3.75807ZM16.51 3.72937C16.4919 3.71118 16.4816 3.68657 16.4813 3.66085L20.4812 3.62932C20.4732 2.60513 20.0627 1.62518 19.3385 0.900944L16.51 3.72937ZM16.4813 3.66085C16.4811 3.63512 16.4911 3.61035 16.509 3.59188L19.3816 6.37537C20.0944 5.63981 20.4893 4.65351 20.4812 3.62932L16.4813 3.66085ZM16.5312 3.56924L10.2807 9.81824L13.1088 12.647L19.3593 6.39801L16.5312 3.56924ZM11.0621 9.33533L7.02713 10.6808L8.29246 14.4754L12.3275 13.1299L11.0621 9.33533ZM9.55709 13.2108L10.9026 9.17579L7.108 7.91046L5.7625 11.9455L9.55709 13.2108ZM10.4193 9.95751L16.6698 3.70851L13.8417 0.879742L7.59125 7.12874L10.4193 9.95751ZM9.47479 5.26312C9.61165 5.26312 9.74712 5.26796 9.8813 5.27754L10.1663 1.28771C9.93647 1.27129 9.70594 1.26312 9.47479 1.26312V5.26312ZM11.438 4.69684L12.7625 3.37234L9.93408 0.543912L8.60958 1.86841L11.438 4.69684ZM11.7642 0.00185414C9.44384 -0.4915 7.02614 -0.221505 4.87175 0.771568L6.54623 4.40421C7.91721 3.77226 9.45575 3.60044 10.9324 3.9144L11.7642 0.00185414ZM4.87175 0.771568C2.71737 1.76464 0.941741 3.42757 -0.190261 5.51232L3.32495 7.42105C4.04532 6.0944 5.17526 5.03617 6.54623 4.40421L4.87175 0.771568ZM-0.190261 5.51232C-1.32226 7.59706 -1.74998 9.9919 -1.40961 12.3396L2.549 11.7657C2.3324 10.2717 2.60459 8.74771 3.32495 7.42105L-0.190261 5.51232ZM-1.40961 12.3396C-1.06925 14.6873 0.0209632 16.8621 1.6984 18.5395L4.52683 15.7111C3.45937 14.6436 2.7656 13.2597 2.549 11.7657L-1.40961 12.3396ZM1.6984 18.5395C3.37584 20.217 5.55061 21.3072 7.89831 21.6475L8.47223 17.6889C6.97823 17.4723 5.59429 16.7786 4.52683 15.7111L1.6984 18.5395ZM7.89831 21.6475C10.246 21.9879 12.6409 21.5602 14.7256 20.4282L12.8169 16.913C11.4902 17.6333 9.96622 17.9055 8.47223 17.6889L7.89831 21.6475ZM14.7256 20.4282C16.8103 19.2962 18.4733 17.5206 19.4664 15.3662L15.8337 13.6917C15.2017 15.0627 14.1435 16.1926 12.8169 16.913L14.7256 20.4282ZM19.4664 15.3662C20.4594 13.2118 20.7294 10.7941 20.2361 8.47369L16.3235 9.30556C16.6375 10.7822 16.4657 12.3207 15.8337 13.6917L19.4664 15.3662ZM16.8648 7.47621L15.5403 8.80221L18.3703 11.629L19.6948 10.303L16.8648 7.47621ZM14.9605 10.3597C14.9699 10.4906 14.9748 10.625 14.9748 10.7631H18.9748C18.9748 10.5313 18.9666 10.3007 18.9501 10.0716L14.9605 10.3597ZM14.9748 10.7631C14.9748 11.8509 14.6522 12.9143 14.0479 13.8188L17.3738 16.041C18.4176 14.4788 18.9748 12.642 18.9748 10.7631H14.9748ZM14.0479 13.8188C13.4435 14.7232 12.5845 15.4282 11.5796 15.8445L13.1103 19.54C14.8462 18.8209 16.3299 17.6033 17.3738 16.041L14.0479 13.8188ZM11.5796 15.8445C10.5746 16.2607 9.46869 16.3697 8.4018 16.1574L7.62144 20.0806C9.46425 20.4471 11.3744 20.259 13.1103 19.54L11.5796 15.8445ZM8.4018 16.1574C7.3349 15.9452 6.35489 15.4214 5.58571 14.6522L2.75728 17.4806C4.08588 18.8092 5.77861 19.714 7.62144 20.0806L8.4018 16.1574ZM5.58571 14.6522C4.81652 13.883 4.29269 12.903 4.08047 11.8361L0.157333 12.6165C0.523892 14.4593 1.42868 16.152 2.75728 17.4806L5.58571 14.6522ZM4.08047 11.8361C3.86826 10.7692 3.97717 9.66336 4.39346 8.65837L0.697937 7.12763C-0.0210951 8.86353 -0.209227 10.7737 0.157333 12.6165L4.08047 11.8361ZM4.39346 8.65837C4.80974 7.65337 5.51469 6.79439 6.41916 6.19004L4.19688 2.86416C2.63461 3.90804 1.41697 5.39173 0.697937 7.12763L4.39346 8.65837ZM6.41916 6.19004C7.32363 5.58569 8.387 5.26312 9.47479 5.26312L9.47479 1.26312C7.59587 1.26312 5.75914 1.82029 4.19688 2.86416L6.41916 6.19004Z" fill="#1C441E" mask="url(#path-1-inside-1_409_8249)"/>
</svg>
