<svg width="20" height="16" viewBox="0 0 20 16" fill="none" xmlns="http://www.w3.org/2000/svg">
<rect x="0.35" y="0.35" width="19.3" height="15.3" rx="3.65" fill="white"/>
<rect x="0.35" y="0.35" width="19.3" height="15.3" rx="3.65" stroke="#C5CDD0" stroke-width="0.7"/>
<path d="M15.7923 5.91328L16.6663 10.0859H15.665C15.625 9.91128 15.5937 9.72861 15.5537 9.55394C15.5137 9.37928 15.5537 9.46661 15.4503 9.46661H14.235C14.2219 9.46434 14.2085 9.46483 14.1956 9.46805C14.1827 9.47128 14.1707 9.47716 14.1602 9.48532C14.1497 9.49348 14.141 9.50374 14.1347 9.51544C14.1285 9.52714 14.1247 9.54003 14.1237 9.55328C14.0677 9.71328 14.0123 9.87194 13.949 10.0226C13.885 10.1733 13.893 10.0939 13.869 10.0939H12.797V9.99861C13.3263 8.74328 13.8563 7.48528 14.3857 6.22461C14.417 6.13904 14.473 6.06467 14.5465 6.01091C14.6201 5.95716 14.708 5.92643 14.799 5.92261C15.1483 5.90661 15.4663 5.91461 15.7923 5.91461M15.0457 7.08328L14.481 8.60128H15.371L15.0457 7.08328ZM6.07434 8.75061V8.65528C6.39234 7.77328 6.71767 6.89128 7.02767 6.00928C7.02767 5.93794 7.09167 5.90594 7.17101 5.90594H8.22767V6.00928L6.58301 9.98261C6.57519 10.0155 6.55532 10.0444 6.52731 10.0634C6.49929 10.0824 6.46517 10.0902 6.43167 10.0853H5.51034C5.43034 10.0853 5.39901 10.0853 5.37501 9.98194C5.08167 8.83794 4.77901 7.69394 4.48501 6.54194C4.47805 6.51243 4.46534 6.48458 4.44761 6.45999C4.42988 6.43539 4.40747 6.41454 4.38167 6.39861C4.07487 6.22789 3.74997 6.09194 3.41301 5.99328C3.41301 5.99328 3.35701 5.95328 3.33301 5.93794C3.36698 5.92984 3.40237 5.92984 3.43634 5.93794H5.02567C5.09206 5.92785 5.15982 5.93189 5.22453 5.94981C5.28925 5.96772 5.34944 5.99911 5.40118 6.04191C5.45292 6.08471 5.49503 6.13796 5.52475 6.19816C5.55448 6.25837 5.57115 6.32418 5.57367 6.39128L6.02701 8.71861C6.02437 8.73718 6.02437 8.75604 6.02701 8.77461L6.07434 8.75061ZM9.77701 9.92661L9.93634 8.99661L10.0477 9.06061C10.4533 9.27076 10.9188 9.33525 11.3663 9.24328C11.4519 9.23595 11.533 9.20217 11.5985 9.14661C11.664 9.09106 11.7105 9.01649 11.7317 8.93328C11.7398 8.85029 11.721 8.7669 11.6782 8.69537C11.6353 8.62384 11.5707 8.56796 11.4937 8.53594C11.3343 8.43261 11.1603 8.35328 11.009 8.24994C10.8133 8.14035 10.6319 8.00688 10.469 7.85261C10.3041 7.65533 10.2138 7.40639 10.2138 7.14928C10.2138 6.89216 10.3041 6.64322 10.469 6.44594C10.7082 6.18445 11.0211 6.00173 11.3663 5.92194C11.8923 5.79066 12.4454 5.81827 12.9557 6.00128H12.9957L12.8443 6.85928C12.6439 6.79758 12.4394 6.74991 12.2323 6.71661C12.026 6.70073 11.8187 6.70073 11.6123 6.71661C11.5378 6.73141 11.4691 6.76728 11.4143 6.81994C11.3878 6.84241 11.3665 6.87039 11.3518 6.90194C11.3372 6.93348 11.3296 6.96784 11.3296 7.00261C11.3296 7.03738 11.3372 7.07174 11.3518 7.10328C11.3665 7.13483 11.3878 7.16281 11.4143 7.18528C11.5092 7.27264 11.6129 7.34995 11.7237 7.41594C11.9303 7.54261 12.145 7.64594 12.3437 7.78128C12.508 7.88175 12.6443 8.02211 12.7399 8.18933C12.8355 8.35655 12.8873 8.54522 12.8905 8.73781C12.8937 8.9304 12.8482 9.12068 12.7582 9.29098C12.6682 9.46128 12.5366 9.60608 12.3757 9.71194C12.0589 9.95725 11.6782 10.1063 11.279 10.1413C10.7682 10.1977 10.2515 10.1238 9.77701 9.92661ZM8.01301 10.0853L8.69634 5.91394H9.78501L9.10167 10.0853H8.01301Z" fill="#1B2E86"/>
</svg>
