<svg width="20" height="20" viewBox="0 0 20 20" fill="none" xmlns="http://www.w3.org/2000/svg">
<path d="M14.2857 0C11.6571 0 9.52381 2.18537 9.52381 4.87805C9.52381 7.57073 11.6571 9.7561 14.2857 9.7561C16.9143 9.7561 19.0476 7.57073 19.0476 4.87805C19.0476 2.18537 16.9143 0 14.2857 0ZM14.2857 7.80488C12.7048 7.80488 11.4286 6.49756 11.4286 4.87805C11.4286 3.25854 12.7048 1.95122 14.2857 1.95122C15.8667 1.95122 17.1429 3.25854 17.1429 4.87805C17.1429 6.49756 15.8667 7.80488 14.2857 7.80488ZM17.1429 13.6585H15.2381C15.2381 12.4878 14.5238 11.4341 13.4571 11.0244L7.59048 8.78049H0V19.5122H5.71429V18.1073L12.381 20L20 17.561V16.5854C20 14.9659 18.7238 13.6585 17.1429 13.6585ZM3.80952 17.561H1.90476V10.7317H3.80952V17.561ZM12.3524 17.961L5.71429 16.0976V10.7317H7.24762L12.7905 12.8488C13.1143 12.9756 13.3333 13.2976 13.3333 13.6585C13.3333 13.6585 11.4286 13.6098 11.1429 13.5122L8.87619 12.7415L8.27619 14.5951L10.5429 15.3659C11.0286 15.5317 11.5333 15.6098 12.0476 15.6098H17.1429C17.5143 15.6098 17.8476 15.8439 18 16.1659L12.3524 17.961Z" fill="#1C441E"/>
</svg>
