<svg width="21" height="20" viewBox="0 0 21 20" fill="none" xmlns="http://www.w3.org/2000/svg">
<path d="M14.7857 0C12.1571 0 10.0238 2.18537 10.0238 4.87805C10.0238 7.57073 12.1571 9.7561 14.7857 9.7561C17.4143 9.7561 19.5476 7.57073 19.5476 4.87805C19.5476 2.18537 17.4143 0 14.7857 0ZM14.7857 7.80488C13.2048 7.80488 11.9286 6.49756 11.9286 4.87805C11.9286 3.25854 13.2048 1.95122 14.7857 1.95122C16.3667 1.95122 17.6429 3.25854 17.6429 4.87805C17.6429 6.49756 16.3667 7.80488 14.7857 7.80488ZM17.6429 13.6585H15.7381C15.7381 12.4878 15.0238 11.4341 13.9571 11.0244L8.09048 8.78049H0.5V19.5122H6.21429V18.1073L12.881 20L20.5 17.561V16.5854C20.5 14.9659 19.2238 13.6585 17.6429 13.6585ZM4.30952 17.561H2.40476V10.7317H4.30952V17.561ZM12.8524 17.961L6.21429 16.0976V10.7317H7.74762L13.2905 12.8488C13.6143 12.9756 13.8333 13.2976 13.8333 13.6585C13.8333 13.6585 11.9286 13.6098 11.6429 13.5122L9.37619 12.7415L8.77619 14.5951L11.0429 15.3659C11.5286 15.5317 12.0333 15.6098 12.5476 15.6098H17.6429C18.0143 15.6098 18.3476 15.8439 18.5 16.1659L12.8524 17.961Z" fill="#3E7E41"/>
</svg>
