<svg width="23" height="15" viewBox="0 0 23 15" fill="none" xmlns="http://www.w3.org/2000/svg">
<path d="M17.49 3.89941C17.49 5.01149 16.6034 5.89941 15.5 5.89941C14.3923 5.89941 13.5 5.00713 13.5 3.89941C13.5 2.7917 14.3923 1.89941 15.5 1.89941C16.6034 1.89941 17.49 2.78734 17.49 3.89941ZM9.49 3.89941C9.49 5.01149 8.60336 5.89941 7.5 5.89941C6.39228 5.89941 5.5 5.00713 5.5 3.89941C5.5 2.7917 6.39228 1.89941 7.5 1.89941C8.60336 1.89941 9.49 2.78734 9.49 3.89941ZM1.5 12.3994C1.5 12.1844 1.59978 11.9222 1.94404 11.6047C2.29514 11.2809 2.82938 10.9716 3.49778 10.7041C4.83618 10.1685 6.4599 9.89941 7.5 9.89941C8.5401 9.89941 10.1638 10.1685 11.5022 10.7041C12.1706 10.9716 12.7049 11.2809 13.056 11.6047C13.4002 11.9222 13.5 12.1844 13.5 12.3994V13.8994H1.5V12.3994ZM17.5 12.3994C17.5 11.4908 17.2584 10.6972 16.8618 10.0115C17.7113 10.1371 18.6628 10.3682 19.5022 10.7041C20.1706 10.9716 20.7049 11.2809 21.056 11.6047C21.4002 11.9222 21.5 12.1844 21.5 12.3994V13.8994H17.5V12.3994Z" stroke="#1C441E" stroke-width="2"/>
</svg>
