<svg width="23" height="19" viewBox="0 0 23 19" fill="none" xmlns="http://www.w3.org/2000/svg">
<path d="M2.5 0C1.39 0 0.5 0.89 0.5 2V14C0.5 14.5304 0.710714 15.0391 1.08579 15.4142C1.46086 15.7893 1.96957 16 2.5 16H13C12.6699 15.2078 12.5 14.3582 12.5 13.5C12.5 11.7761 13.1848 10.1228 14.4038 8.90381C15.6228 7.68482 17.2761 7 19 7C19.5053 7.00149 20.0087 7.0619 20.5 7.18V2C20.5 1.46957 20.2893 0.960859 19.9142 0.585786C19.5391 0.210714 19.0304 0 18.5 0H2.5ZM2.5 2L10.5 7L18.5 2V4L10.5 9L2.5 4V2ZM18.5 8L16.25 10.25L18.5 12.5V11C19.163 11 19.7989 11.2634 20.2678 11.7322C20.7366 12.2011 21 12.837 21 13.5C21 13.9 20.91 14.28 20.74 14.62L21.83 15.71C22.25 15.08 22.5 14.32 22.5 13.5C22.5 11.29 20.71 9.5 18.5 9.5V8ZM15.17 11.29C14.75 11.92 14.5 12.68 14.5 13.5C14.5 15.71 16.29 17.5 18.5 17.5V19L20.75 16.75L18.5 14.5V16C17.837 16 17.2011 15.7366 16.7322 15.2678C16.2634 14.7989 16 14.163 16 13.5C16 13.1 16.09 12.72 16.26 12.38L15.17 11.29Z" fill="#1C441E"/>
</svg>
